<?xml version="1.0" encoding="UTF-8"?>
<!-- Generator: Adobe Illustrator 16.0.0, SVG Export Plug-In . SVG Version: 6.00 Build 0)  -->
<!DOCTYPE svg PUBLIC "-//W3C//DTD SVG 1.1//EN" "http://www.w3.org/Graphics/SVG/1.1/DTD/svg11.dtd">
<svg version="1.1" id="Outline_Color" xmlns="http://www.w3.org/2000/svg" xmlns:xlink="http://www.w3.org/1999/xlink" x="0px" y="0px" width="29.865px" height="19.84px" viewBox="282.707 411.028 29.865 19.84" enable-background="new 282.707 411.028 29.865 19.84" xml:space="preserve">
<path fill="#FFFFFF" d="M307.755,427.834l-0.256,0.478c-0.983,1.88-3.144,2.852-5.197,2.307c-3.197-0.865-6.325-2.635-8.737-5.101  c-2.465-2.433-4.231-5.542-5.098-8.737c-0.563-2.055,0.425-4.212,2.31-5.2c0.204-0.102,0.393-0.205,0.579-0.305  c0.577-0.306,1.273-0.122,1.63,0.426c0.63,0.95,1.513,2.328,2.585,3.96c0.323,0.492,0.253,1.154-0.171,1.581l-0.952,0.951  c-0.474,0.477-0.61,1.208-0.323,1.835c1.003,2.188,2.754,3.943,4.946,4.947c0.612,0.288,1.346,0.152,1.837-0.325l0.866-0.867  c0.425-0.422,1.071-0.495,1.579-0.168l3.996,2.603C307.877,426.557,308.064,427.252,307.755,427.834z"/>
</svg>