<?xml version="1.0" encoding="UTF-8"?>
<!-- Generator: Adobe Illustrator 16.0.0, SVG Export Plug-In . SVG Version: 6.00 Build 0)  -->
<!DOCTYPE svg PUBLIC "-//W3C//DTD SVG 1.1//EN" "http://www.w3.org/Graphics/SVG/1.1/DTD/svg11.dtd">
<svg version="1.1" id="Layer_1" xmlns="http://www.w3.org/2000/svg" xmlns:xlink="http://www.w3.org/1999/xlink" x="0px" y="0px" width="8.541px" height="8.451px" viewBox="0 0 8.541 8.451" enable-background="new 0 0 8.541 8.451" xml:space="preserve">
<path fill="#231F20" d="M8.423,7.188L8.314,7.393C7.89,8.204,6.96,8.621,6.076,8.387C4.7,8.014,3.354,7.253,2.316,6.192  c-1.061-1.046-1.821-2.385-2.194-3.76C-0.12,1.548,0.305,0.619,1.116,0.194C1.204,0.15,1.285,0.106,1.365,0.063  c0.249-0.132,0.548-0.052,0.702,0.183C2.338,0.655,2.718,1.248,3.179,1.95c0.139,0.212,0.109,0.497-0.073,0.681L2.696,3.04  C2.492,3.245,2.433,3.56,2.557,3.83c0.432,0.943,1.185,1.697,2.129,2.129c0.263,0.124,0.578,0.065,0.79-0.14l0.373-0.373  C6.032,5.264,6.31,5.234,6.529,5.373l1.719,1.12C8.475,6.639,8.555,6.938,8.423,7.188z"/>
</svg>