<?xml version="1.0" encoding="UTF-8"?>
<!-- Generator: Adobe Illustrator 16.0.0, SVG Export Plug-In . SVG Version: 6.00 Build 0)  -->
<!DOCTYPE svg PUBLIC "-//W3C//DTD SVG 1.1//EN" "http://www.w3.org/Graphics/SVG/1.1/DTD/svg11.dtd">
<svg version="1.1" id="Outline_Color" xmlns="http://www.w3.org/2000/svg" xmlns:xlink="http://www.w3.org/1999/xlink" x="0px" y="0px" width="29.865px" height="19.84px" viewBox="282.707 411.028 29.865 19.84" enable-background="new 282.707 411.028 29.865 19.84" xml:space="preserve">
<g>
	<path fill="#FF0000" d="M310.241,430.723h-25.205c-1.212,0-2.204-0.65-2.204-1.446V412.73c0-0.796,0.992-1.447,2.204-1.447h25.205   c1.212,0,2.204,0.651,2.204,1.447v16.545C312.446,430.072,311.453,430.723,310.241,430.723z"/>
</g>
<g>
	<path fill="#FFFFFF" d="M297.64,420.28l14.844-7.823c-0.204-0.81-0.905-1.429-1.777-1.429h-26.133   c-0.872,0-1.575,0.619-1.777,1.429L297.64,420.28z"/>
	<polygon fill="#FFFFFF" points="297.536,421.777 293.819,419.817 285.95,430.868 309.307,430.868 301.44,419.828 297.64,421.831     "/>
	<path fill="#FFFFFF" d="M302.665,419.184l8.288,11.634c0.905-0.126,1.619-0.876,1.619-1.816v-15.041L302.665,419.184z"/>
	<path fill="#FFFFFF" d="M284.306,430.813l8.289-11.641l-9.888-5.211v15.04C282.707,429.934,283.41,430.678,284.306,430.813z"/>
</g>
</svg>