<?xml version="1.0" encoding="utf-8"?>
<!-- Generator: Adobe Illustrator 16.0.0, SVG Export Plug-In . SVG Version: 6.00 Build 0)  -->
<!DOCTYPE svg PUBLIC "-//W3C//DTD SVG 1.1//EN" "http://www.w3.org/Graphics/SVG/1.1/DTD/svg11.dtd">
<svg version="1.1" id="Layer_1" xmlns="http://www.w3.org/2000/svg" xmlns:xlink="http://www.w3.org/1999/xlink" x="0px" y="0px"
	 width="146.848px" height="65.834px" viewBox="0 0 146.848 65.834" enable-background="new 0 0 146.848 65.834"
	 xml:space="preserve">
<g>
	<defs>
		<rect id="SVGID_1_" x="1" y="0.485" width="145.173" height="64.969"/>
	</defs>
	<clipPath id="SVGID_2_">
		<use xlink:href="#SVGID_1_"  overflow="visible"/>
	</clipPath>
	<path clip-path="url(#SVGID_2_)" fill="#4D4D4F" d="M96.67,32.166c0-4.15,2.426-7.664,7.001-7.664h5.816
		c1.74-4.23,4.862-7.758,8.72-10.028h-16.476c-8.038,0-16.144,7.109-16.144,17.692c0,10.653,8.105,16.806,16.144,16.806h6.649
		v-9.958h-4.71C99.096,39.014,96.67,36.315,96.67,32.166"/>
	<path clip-path="url(#SVGID_2_)" fill="#EF4135" d="M20.321,25.355c1.739-4.234,4.854-7.767,8.714-10.042H17.14
		c-7.911,0-15.874,6.914-16.113,17.249L1.008,32.57v0.397c0,0.02-0.002,0.043-0.002,0.063l0.002,0.001v16.771h11.084V32.813
		c0.082-4.06,2.497-7.458,6.985-7.458H20.321z"/>
	<rect x="58.549" y="0.485" clip-path="url(#SVGID_2_)" fill="#EF4135" width="11.083" height="48.486"/>
	<rect x="72.191" y="0.485" clip-path="url(#SVGID_2_)" fill="#EF4135" width="11.083" height="48.486"/>
	<polygon clip-path="url(#SVGID_2_)" fill="#4D4D4F" points="77.051,65.368 76.09,65.368 76.09,60.17 76.069,60.17 74.019,62.753 
		73.864,62.753 71.805,60.17 71.786,60.17 71.786,65.368 70.827,65.368 70.827,58.689 71.726,58.689 73.938,61.435 76.16,58.689 
		77.051,58.689 	"/>
	<path clip-path="url(#SVGID_2_)" fill="#4D4D4F" d="M82.521,58.604c2.204,0,3.59,1.566,3.59,3.427c0,1.801-1.347,3.424-3.608,3.424
		c-2.187,0-3.563-1.614-3.563-3.424C78.939,60.179,80.358,58.604,82.521,58.604 M82.521,64.574c1.5,0,2.602-1.088,2.602-2.544
		c0-1.469-1.102-2.545-2.602-2.545c-1.49,0-2.594,1.076-2.594,2.545C79.927,63.486,81.03,64.574,82.521,64.574"/>
	<polygon clip-path="url(#SVGID_2_)" fill="#4D4D4F" points="89.988,65.426 89.793,65.426 86.904,58.688 87.864,58.688 
		89.869,63.382 91.865,58.688 92.816,58.688 	"/>
	<rect x="94.301" y="58.689" clip-path="url(#SVGID_2_)" fill="#4D4D4F" width="0.958" height="6.679"/>
	<polygon clip-path="url(#SVGID_2_)" fill="#4D4D4F" points="103.66,65.368 102.837,65.368 98.371,60.226 98.371,65.368 
		97.472,65.368 97.472,58.689 98.231,58.689 102.756,63.86 102.756,58.689 103.66,58.689 	"/>
	<path clip-path="url(#SVGID_2_)" fill="#4D4D4F" d="M111.721,64.905c-0.889,0.393-1.613,0.549-2.546,0.549
		c-2.048,0-3.55-1.428-3.55-3.388c0-1.968,1.547-3.463,3.58-3.463c0.784,0,1.332,0.128,2.378,0.569v0.968
		c-0.784-0.429-1.594-0.656-2.398-0.656c-1.446,0-2.572,1.106-2.572,2.555c0,1.49,1.116,2.534,2.7,2.534
		c0.522,0,0.988-0.118,1.448-0.264v-1.371h-1.282v-0.862h2.242V64.905z"/>
	<path clip-path="url(#SVGID_2_)" fill="#4D4D4F" d="M119.351,58.689c1.458,0,2.125,0.859,2.125,1.92c0,1.046-0.705,1.87-2.253,1.87
		h-0.998v2.889h-0.96v-6.679H119.351z M118.225,61.617h1.089c0.714,0,1.172-0.384,1.172-1.046c0-0.491-0.266-1.022-1.135-1.022
		h-1.126V61.617z"/>
	<path clip-path="url(#SVGID_2_)" fill="#4D4D4F" d="M128.063,65.369h-0.979l-0.891-1.967h-2.841l-0.84,1.967h-0.982l2.871-6.718
		h0.677L128.063,65.369z M123.727,62.541h2.077l-1.079-2.422L123.727,62.541z"/>
	<path clip-path="url(#SVGID_2_)" fill="#4D4D4F" d="M131.238,58.688c1.354,0,2.197,0.713,2.197,1.873
		c0,0.771-0.404,1.349-1.117,1.633c0.605,0.401,0.979,1.018,1.489,1.851c0.284,0.463,0.449,0.687,0.909,1.324h-1.146l-0.88-1.371
		c-0.885-1.373-1.287-1.528-1.773-1.528h-0.402v2.899h-0.96v-6.681H131.238z M130.516,61.607h0.619c1.025,0,1.321-0.528,1.31-1.088
		c-0.008-0.624-0.381-1.008-1.31-1.008h-0.619V61.607z"/>
	<polygon clip-path="url(#SVGID_2_)" fill="#4D4D4F" points="140.326,59.55 138.012,59.55 138.012,65.369 137.053,65.369 
		137.053,59.55 134.743,59.55 134.743,58.688 140.326,58.688 	"/>
	<path clip-path="url(#SVGID_2_)" fill="#4D4D4F" d="M145.138,60.16c-0.567-0.539-1.116-0.694-1.565-0.694
		c-0.619,0-1.06,0.321-1.06,0.789c0,1.288,2.89,1.264,2.89,3.388c0,1.05-0.795,1.812-1.871,1.812c-0.724,0-1.312-0.193-1.87-0.614
		v-1.217c0.492,0.629,1.107,0.971,1.766,0.971c0.743,0,1.083-0.47,1.083-0.844c0-1.381-2.887-1.536-2.887-3.368
		c0-1.081,0.805-1.778,2.024-1.778c0.511,0,1.017,0.156,1.49,0.469V60.16z"/>
	<rect x="1" y="53.362" clip-path="url(#SVGID_2_)" fill="#4D4D4F" width="144.397" height="0.948"/>
	<path clip-path="url(#SVGID_2_)" fill="#EF4135" d="M38.896,14.479c-9.28,0-17.383,7.965-17.383,17.662s8.103,17.662,17.383,17.662
		c9.282,0,17.386-7.965,17.386-17.662S48.178,14.479,38.896,14.479 M47.452,33.847c-0.043,0.235-0.098,0.466-0.165,0.687
		l-0.73,0.043c-0.242,0.783-0.601,1.515-1.056,2.175l0.428,0.611c-0.282,0.376-0.594,0.734-0.926,1.066l-0.664-0.334
		c-0.591,0.548-1.263,1.008-1.998,1.36l0.066,0.73c-0.431,0.198-0.873,0.35-1.334,0.464l-0.403-0.614
		c-0.578,0.133-1.178,0.204-1.796,0.204c-0.209,0-0.415-0.011-0.62-0.026l-0.306,0.664c-0.234-0.021-0.474-0.061-0.703-0.108
		c-0.223-0.041-0.457-0.088-0.685-0.158l-0.041-0.723c-0.789-0.241-1.526-0.602-2.191-1.058l-0.598,0.414
		c-0.369-0.271-0.73-0.588-1.063-0.918l0.327-0.647c-0.554-0.594-1.02-1.271-1.375-2.011l-0.711,0.066
		c-0.187-0.428-0.345-0.885-0.465-1.338l0.597-0.392c-0.133-0.583-0.206-1.187-0.206-1.808c0-0.213,0.01-0.423,0.027-0.632
		l-0.643-0.296c0.025-0.241,0.059-0.469,0.106-0.702c0.041-0.226,0.094-0.456,0.16-0.687l0.701-0.04
		c0.244-0.796,0.608-1.538,1.07-2.208l-0.407-0.579c0.275-0.37,0.591-0.732,0.922-1.065l0.631,0.319
		c0.599-0.556,1.282-1.023,2.028-1.377l-0.063-0.702c0.431-0.192,0.878-0.348,1.33-0.46l0.387,0.59
		c0.576-0.131,1.175-0.203,1.791-0.203c0.222,0,0.441,0.012,0.658,0.029l0.301-0.647c0.23,0.028,0.466,0.063,0.694,0.105
		c0.231,0.045,0.456,0.1,0.687,0.161l0.039,0.71c0.791,0.245,1.529,0.61,2.195,1.071l0.595-0.416
		c0.374,0.276,0.734,0.589,1.06,0.921l-0.326,0.649c0.552,0.596,1.014,1.275,1.366,2.017l0.724-0.067
		c0.192,0.429,0.346,0.879,0.464,1.333l-0.614,0.404c0.129,0.57,0.198,1.163,0.198,1.772c0,0.216-0.011,0.429-0.027,0.64
		l0.669,0.309C47.533,33.388,47.492,33.618,47.452,33.847"/>
	<path clip-path="url(#SVGID_2_)" fill="#4D4D4F" d="M128.056,14.479c-9.282,0-17.384,7.965-17.384,17.662
		s8.102,17.662,17.384,17.662c9.279,0,17.386-7.965,17.386-17.662S137.335,14.479,128.056,14.479 M136.868,33.847
		c-0.04,0.235-0.094,0.466-0.162,0.687l-0.729,0.043c-0.242,0.783-0.602,1.515-1.057,2.176l0.427,0.61
		c-0.281,0.376-0.594,0.734-0.925,1.066l-0.664-0.335c-0.59,0.548-1.262,1.008-1.996,1.359l0.066,0.732
		c-0.435,0.198-0.878,0.35-1.336,0.464l-0.403-0.615c-0.578,0.133-1.18,0.205-1.798,0.205c-0.208,0-0.412-0.011-0.616-0.025
		l-0.307,0.663c-0.237-0.021-0.479-0.061-0.702-0.108c-0.227-0.041-0.456-0.088-0.688-0.158l-0.038-0.722
		c-0.79-0.241-1.528-0.601-2.194-1.059l-0.595,0.414c-0.373-0.271-0.73-0.588-1.067-0.918l0.327-0.647
		c-0.554-0.594-1.021-1.271-1.375-2.011l-0.709,0.066c-0.185-0.428-0.344-0.885-0.463-1.338l0.592-0.391
		c-0.134-0.582-0.207-1.188-0.207-1.809c0-0.213,0.011-0.424,0.027-0.633l-0.639-0.295c0.021-0.241,0.063-0.469,0.105-0.702
		c0.042-0.226,0.091-0.456,0.16-0.687l0.697-0.04c0.244-0.797,0.609-1.54,1.073-2.211l-0.404-0.576
		c0.276-0.37,0.59-0.732,0.921-1.065l0.629,0.319c0.599-0.557,1.281-1.023,2.028-1.378l-0.06-0.701
		c0.433-0.192,0.876-0.348,1.329-0.46l0.387,0.589c0.575-0.13,1.172-0.202,1.787-0.202c0.222,0,0.441,0.012,0.659,0.029l0.3-0.647
		c0.234,0.028,0.47,0.063,0.697,0.105c0.23,0.045,0.454,0.1,0.686,0.161l0.04,0.711c0.791,0.245,1.529,0.609,2.195,1.071
		l0.594-0.417c0.376,0.276,0.73,0.589,1.064,0.921l-0.328,0.651c0.551,0.595,1.013,1.274,1.363,2.015l0.727-0.067
		c0.189,0.429,0.347,0.879,0.46,1.333l-0.611,0.403c0.128,0.571,0.198,1.163,0.198,1.773c0,0.216-0.011,0.429-0.028,0.64l0.67,0.309
		C136.953,33.388,136.913,33.618,136.868,33.847"/>
	<path clip-path="url(#SVGID_2_)" d="M142.397,9.846c-2.082,0-3.774-1.694-3.774-3.775c0-2.082,1.692-3.776,3.774-3.776
		s3.775,1.694,3.775,3.776C146.173,8.152,144.479,9.846,142.397,9.846 M142.397,2.384c-2.033,0-3.687,1.654-3.687,3.687
		c0,2.032,1.653,3.686,3.687,3.686s3.688-1.654,3.688-3.686C146.085,4.038,144.431,2.384,142.397,2.384"/>
	<path clip-path="url(#SVGID_2_)" fill="#4D4D4F" d="M140.71,8.166V3.621h1.932c0.485,0,0.839,0.041,1.059,0.122
		c0.221,0.082,0.396,0.227,0.528,0.436c0.133,0.209,0.198,0.447,0.198,0.716c0,0.341-0.101,0.623-0.3,0.845
		c-0.201,0.222-0.5,0.362-0.899,0.42c0.198,0.115,0.362,0.243,0.491,0.381c0.129,0.139,0.304,0.385,0.521,0.738l0.556,0.887h-1.098
		l-0.664-0.989c-0.234-0.354-0.396-0.577-0.482-0.668c-0.087-0.092-0.179-0.155-0.276-0.19c-0.097-0.034-0.251-0.051-0.462-0.051
		h-0.186v1.898H140.71z M141.628,5.542h0.679c0.439,0,0.715-0.019,0.825-0.056c0.108-0.037,0.194-0.101,0.257-0.192
		c0.062-0.091,0.093-0.205,0.093-0.341c0-0.153-0.041-0.277-0.123-0.371c-0.081-0.094-0.197-0.153-0.345-0.178
		c-0.075-0.01-0.298-0.015-0.67-0.015h-0.716V5.542z"/>
</g>
</svg>
