<?xml version="1.0" encoding="UTF-8"?>
<!-- Generator: Adobe Illustrator 16.0.0, SVG Export Plug-In . SVG Version: 6.00 Build 0)  -->
<!DOCTYPE svg PUBLIC "-//W3C//DTD SVG 1.1//EN" "http://www.w3.org/Graphics/SVG/1.1/DTD/svg11.dtd">
<svg version="1.1" id="Layer_1" xmlns="http://www.w3.org/2000/svg" xmlns:xlink="http://www.w3.org/1999/xlink" x="0px" y="0px" width="24.546px" height="33.141px" viewBox="0 0 24.546 33.141" enable-background="new 0 0 24.546 33.141" xml:space="preserve">
<path fill="#FFFFFF" d="M12.345,0c-6.727,0-12.2,5.475-12.2,12.2c0,1.756,0.359,3.432,1.067,4.981  c3.05,6.675,8.899,13.723,10.62,15.724c0.127,0.149,0.316,0.235,0.513,0.235c0.199,0,0.386-0.086,0.515-0.235  c1.72-2.001,7.567-9.047,10.619-15.724c0.709-1.55,1.067-3.226,1.067-4.981C24.546,5.475,19.071,0,12.345,0 M12.345,18.538  c-3.494,0-6.338-2.843-6.338-6.338c0-3.493,2.844-6.337,6.338-6.337s6.338,2.844,6.338,6.337  C18.683,15.695,15.839,18.538,12.345,18.538"/>
</svg>