<svg xmlns="http://www.w3.org/2000/svg" width="29" height="31" viewBox="0 0 29 31">
    <g fill="#7A8496" fill-rule="nonzero">
        <path d="M29 27H0l.003-.646c.013-2.613 1.813-4.852 4.269-5.424v-7.518C4.272 7.671 8.859 3 14.499 3c5.641 0 10.23 4.67 10.23 10.412v7.518c2.455.572 4.254 2.81 4.268 5.424L29 27zM1.317 25.714h26.366c-.29-1.87-1.771-3.369-3.663-3.606l-.555-.069v-8.627c0-5.032-4.022-9.126-8.966-9.126-4.943 0-8.964 4.094-8.964 9.126v8.627l-.555.068c-1.893.238-3.373 1.737-3.663 3.607z"/>
        <path d="M12.252 4H11v-.799C11 1.436 12.346 0 14 0s3 1.436 3 3.201v.786h-1.252V3.2c0-1.028-.784-1.865-1.748-1.865-.963 0-1.748.837-1.748 1.865V4zM13.99 31c-2.409 0-4.508-1.95-4.99-4.636l1.198-.278c.366 2.04 1.961 3.522 3.793 3.522 1.869 0 3.47-1.518 3.807-3.608l1.202.251C18.557 29.003 16.45 31 13.99 31zM5 21h3v1H5zM11 21h14v1H11z"/>
    </g>
</svg>
