<svg xmlns="http://www.w3.org/2000/svg" width="34" height="32" viewBox="0 0 34 32">
    <g fill="#7A8496" fill-rule="nonzero">
        <path stroke="#FFF" stroke-width=".6" d="M30.188 1H3.813A2.816 2.816 0 0 0 1 3.813v18.75a2.816 2.816 0 0 0 2.813 2.812h8.136l-1.25 3.75H7.625a.937.937 0 1 0 0 1.875h18.75a.937.937 0 1 0 0-1.875h-3.074l-1.25-3.75h8.137A2.816 2.816 0 0 0 33 22.562V3.813A2.816 2.816 0 0 0 30.187 1zM12.675 29.125l1.25-3.75h6.148l1.25 3.75h-8.648zm18.449-6.563c0 .517-.42.938-.938.938H3.813a.939.939 0 0 1-.937-.938v-.937h28.25v.938zm-19.901-8.2l-.853-.853 1.326-1.326.852.853a.937.937 0 0 0 1.14.145 6.509 6.509 0 0 1 1.671-.696.937.937 0 0 0 .703-.907v-1.203h1.875v1.203c0 .427.288.8.702.907.582.151 1.144.385 1.671.696a.938.938 0 0 0 1.14-.145l.852-.853 1.326 1.326-.853.853a.937.937 0 0 0-.144 1.139c.31.527.545 1.09.695 1.672.107.413.48.702.908.702h1.203v1.875h-3.845A4.693 4.693 0 0 0 17 14.125a4.693 4.693 0 0 0-4.593 5.625H8.562v-1.875h1.203c.427 0 .8-.289.908-.702.15-.582.385-1.145.695-1.672a.938.938 0 0 0-.144-1.14zm8.588 4.45c0 .322-.055.639-.16.938h-5.303A2.816 2.816 0 0 1 17 16a2.816 2.816 0 0 1 2.813 2.813zm11.313.938h-3.813v-2.813a.937.937 0 0 0-.937-.937h-1.448a8.409 8.409 0 0 0-.334-.803l1.025-1.025a.938.938 0 0 0 0-1.326l-2.652-2.651a.937.937 0 0 0-1.326 0l-1.025 1.025a8.344 8.344 0 0 0-.802-.334V9.438a.937.937 0 0 0-.938-.938h-3.75a.937.937 0 0 0-.938.938v1.448c-.272.097-.54.208-.802.334l-1.025-1.025a.937.937 0 0 0-1.326 0l-2.652 2.651a.937.937 0 0 0 0 1.326l1.025 1.026c-.125.262-.236.53-.334.802H7.625a.938.938 0 0 0-.938.938v2.812H2.876V3.812c0-.516.42-.937.938-.937h26.375c.516 0 .937.42.937.938V19.75z"/>
        <path d="M27 5c-1.654 0-3 1.346-3 3s1.346 3 3 3 3-1.346 3-3-1.346-3-3-3zm0 4c-.551 0-1-.449-1-1 0-.551.449-1 1-1 .551 0 1 .449 1 1 0 .551-.449 1-1 1z"/>
    </g>
</svg>
