<?xml version="1.0" encoding="UTF-8"?>
<svg width="15px" height="20px" viewBox="0 0 15 20" version="1.1" xmlns="http://www.w3.org/2000/svg" xmlns:xlink="http://www.w3.org/1999/xlink">
    <!-- Generator: Sketch 51.2 (57519) - http://www.bohemiancoding.com/sketch -->
    <title>rubbish-bin (1)</title>
    <desc>Created with Sketch.</desc>
    <defs></defs>
    <g id="Page-1" stroke="none" stroke-width="1" fill="none" fill-rule="evenodd">
        <g id="Page-3" transform="translate(-1173.000000, -258.000000)" fill="#FF0000" fill-rule="nonzero">
            <g id="rubbish-bin-(1)" transform="translate(1173.000000, 258.000000)">
                <path d="M13.6871941,2.35274839 L11.1575285,2.35274839 L11.1575285,0.619122581 C11.1575285,0.270167742 10.8906362,0 10.5597798,0 C10.5276754,0 10.5062643,0.0113032258 10.4958157,0.0225806452 C10.4850979,0.0113032258 10.4636868,0 10.4529935,0 L4.50763458,0 L4.4650571,0 L4.42223491,0 C4.09137847,0 3.83520392,0.270167742 3.83520392,0.619122581 L3.83520392,2.35277419 L1.29484502,2.35277419 C0.568898858,2.35277419 0.00325448613,2.94931613 0.00325448613,3.71491613 L0.00325448613,4.70554839 L0.00325448613,5.94376774 L1.12404568,5.94376774 L1.12404568,18.6302194 C1.12404568,19.3958452 1.67899674,19.9810839 2.4049429,19.9810839 L12.5771207,19.9810839 C13.3030669,19.9810839 13.8686868,19.3958452 13.8686868,18.6302194 L13.8686868,5.94376774 L14.9787847,5.94376774 L14.9787847,4.70554839 L14.9787847,3.71491613 C14.9787847,2.94931613 14.4129201,2.35274839 13.6871941,2.35274839 Z M5.00929038,1.23821935 L9.97274878,1.23821935 L9.97274878,2.35274839 L5.00929038,2.35274839 L5.00929038,1.23821935 Z M12.683907,18.6302452 C12.683907,18.7092387 12.6518026,18.7428387 12.5771207,18.7428387 L2.4049429,18.7428387 C2.33026101,18.7428387 2.29815661,18.7092129 2.29815661,18.6302452 L2.29815661,5.94374194 L12.683907,5.94374194 L12.683907,18.6302452 Z M13.7940049,4.70552258 L1.18803426,4.70552258 L1.18803426,3.71489032 C1.18803426,3.63610323 1.22013866,3.59096774 1.29482055,3.59096774 L13.6871941,3.59096774 C13.7619005,3.59096774 13.7940049,3.63610323 13.7940049,3.71489032 L13.7940049,4.70552258 Z" id="Shape"></path>
                <rect id="Rectangle-path" x="9.64186786" y="7.39594839" width="1.18477977" height="10.2436645"></rect>
                <rect id="Rectangle-path" x="6.909323" y="7.39594839" width="1.18477977" height="10.2436645"></rect>
                <rect id="Rectangle-path" x="4.17675367" y="7.39594839" width="1.18477977" height="10.2436645"></rect>
            </g>
        </g>
    </g>
</svg>