<svg xmlns="http://www.w3.org/2000/svg" width="18" height="18" viewBox="0 0 18 18">
    <path fill="#9B9B9B" fill-rule="nonzero" d="M16.834 1.165a3.97 3.97 0 0 0-5.619 0L.914 11.464a.515.515 0 0 0-.146.295l-.763 5.654a.514.514 0 0 0 .146.434c.096.095.23.153.364.153.023 0 .046 0 .07-.004l3.405-.46a.519.519 0 0 0-.138-1.028l-2.73.368.532-3.943 4.15 4.15a.508.508 0 0 0 .729 0L16.834 6.784A3.95 3.95 0 0 0 18 3.973c0-1.063-.414-2.06-1.166-2.808zm-5.42 1.266l1.73 1.73-9.4 9.401-1.73-1.73 9.4-9.401zM6.173 15.986l-1.691-1.691 9.4-9.402 1.691 1.692-9.4 9.401zM16.293 5.845l-4.138-4.14a2.93 2.93 0 0 1 1.872-.67 2.93 2.93 0 0 1 2.078.859c.556.552.86 1.293.86 2.079 0 .694-.238 1.346-.672 1.872z"/>
</svg>
