<?xml version="1.0" encoding="UTF-8"?>
<svg width="21px" height="20px" viewBox="0 0 21 20" version="1.1" xmlns="http://www.w3.org/2000/svg" xmlns:xlink="http://www.w3.org/1999/xlink">
    <!-- Generator: Sketch 51.2 (57519) - http://www.bohemiancoding.com/sketch -->
    <title>excel</title>
    <desc>Created with Sketch.</desc>
    <defs></defs>
    <g id="Page-1" stroke="none" stroke-width="1" fill="none" fill-rule="evenodd" opacity="0.716741071">
        <g id="Page-8" transform="translate(-1089.000000, -526.000000)" fill="#000000" fill-rule="nonzero">
            <g id="Group-3-Copy" transform="translate(1079.000000, 518.000000)">
                <g id="excel" transform="translate(10.000000, 8.000000)">
                    <path d="M11.8477475,0.152513924 C11.694596,0.0271754162 11.4917374,-0.0248267307 11.295596,0.0111747556 L0.548121212,2.01125733 C0.229727273,2.06992642 0,2.34460443 0,2.66595103 L0,17.3332232 C0,17.6532364 0.229727273,17.9292478 0.548121212,17.9879169 L11.295596,19.9879995 C11.335899,19.9959998 11.3788889,20 11.4191919,20 C11.5736869,20 11.7268384,19.9466645 11.8477475,19.8466603 C12.0022424,19.7199884 12.0909091,19.5306473 12.0909091,19.3333058 L12.0909091,0.665868451 C12.0909091,0.467193582 12.0022424,0.279185821 11.8477475,0.152513924 Z M10.7474747,18.5292726 L1.34343434,16.7798671 L1.34343434,3.2193072 L10.7474747,1.46990165 L10.7474747,18.5292726 Z" id="Shape"></path>
                    <path d="M20.34375,2.53968254 L11.15625,2.53968254 C10.794,2.53968254 10.5,2.83705628 10.5,3.2034632 C10.5,3.56987013 10.794,3.86724387 11.15625,3.86724387 L19.6875,3.86724387 L19.6875,15.8152958 L11.15625,15.8152958 C10.794,15.8152958 10.5,16.1126696 10.5,16.4790765 C10.5,16.8454834 10.794,17.1428571 11.15625,17.1428571 L20.34375,17.1428571 C20.706,17.1428571 21,16.8454834 21,16.4790765 L21,3.2034632 C21,2.83705628 20.706,2.53968254 20.34375,2.53968254 Z" id="Shape"></path>
                    <path d="M13.9469697,5.3968254 L11.1893939,5.3968254 C10.8088485,5.3968254 10.5,5.68126984 10.5,6.03174603 C10.5,6.38222222 10.8088485,6.66666667 11.1893939,6.66666667 L13.9469697,6.66666667 C14.3275152,6.66666667 14.6363636,6.38222222 14.6363636,6.03174603 C14.6363636,5.68126984 14.3275152,5.3968254 13.9469697,5.3968254 Z" id="Shape"></path>
                    <path d="M13.9469697,7.93650794 L11.1893939,7.93650794 C10.8088485,7.93650794 10.5,8.22095238 10.5,8.57142857 C10.5,8.92190476 10.8088485,9.20634921 11.1893939,9.20634921 L13.9469697,9.20634921 C14.3275152,9.20634921 14.6363636,8.92190476 14.6363636,8.57142857 C14.6363636,8.22095238 14.3275152,7.93650794 13.9469697,7.93650794 Z" id="Shape"></path>
                    <path d="M13.9469697,10.7936508 L11.1893939,10.7936508 C10.8088485,10.7936508 10.5,11.0780952 10.5,11.4285714 C10.5,11.7790476 10.8088485,12.0634921 11.1893939,12.0634921 L13.9469697,12.0634921 C14.3275152,12.0634921 14.6363636,11.7790476 14.6363636,11.4285714 C14.6363636,11.0780952 14.3275152,10.7936508 13.9469697,10.7936508 Z" id="Shape"></path>
                    <path d="M13.9469697,13.3333333 L11.1893939,13.3333333 C10.8088485,13.3333333 10.5,13.6177778 10.5,13.968254 C10.5,14.3187302 10.8088485,14.6031746 11.1893939,14.6031746 L13.9469697,14.6031746 C14.3275152,14.6031746 14.6363636,14.3187302 14.6363636,13.968254 C14.6363636,13.6177778 14.3275152,13.3333333 13.9469697,13.3333333 Z" id="Shape"></path>
                    <path d="M17.8181818,5.3968254 L16.5454545,5.3968254 C16.1941818,5.3968254 15.9090909,5.68126984 15.9090909,6.03174603 C15.9090909,6.38222222 16.1941818,6.66666667 16.5454545,6.66666667 L17.8181818,6.66666667 C18.1694545,6.66666667 18.4545455,6.38222222 18.4545455,6.03174603 C18.4545455,5.68126984 18.1694545,5.3968254 17.8181818,5.3968254 Z" id="Shape"></path>
                    <path d="M17.8181818,7.93650794 L16.5454545,7.93650794 C16.1941818,7.93650794 15.9090909,8.22095238 15.9090909,8.57142857 C15.9090909,8.92190476 16.1941818,9.20634921 16.5454545,9.20634921 L17.8181818,9.20634921 C18.1694545,9.20634921 18.4545455,8.92190476 18.4545455,8.57142857 C18.4545455,8.22095238 18.1694545,7.93650794 17.8181818,7.93650794 Z" id="Shape"></path>
                    <path d="M17.8181818,10.7936508 L16.5454545,10.7936508 C16.1941818,10.7936508 15.9090909,11.0780952 15.9090909,11.4285714 C15.9090909,11.7790476 16.1941818,12.0634921 16.5454545,12.0634921 L17.8181818,12.0634921 C18.1694545,12.0634921 18.4545455,11.7790476 18.4545455,11.4285714 C18.4545455,11.0780952 18.1694545,10.7936508 17.8181818,10.7936508 Z" id="Shape"></path>
                    <path d="M17.8181818,13.3333333 L16.5454545,13.3333333 C16.1941818,13.3333333 15.9090909,13.6177778 15.9090909,13.968254 C15.9090909,14.3187302 16.1941818,14.6031746 16.5454545,14.6031746 L17.8181818,14.6031746 C18.1694545,14.6031746 18.4545455,14.3187302 18.4545455,13.968254 C18.4545455,13.6177778 18.1694545,13.3333333 17.8181818,13.3333333 Z" id="Shape"></path>
                    <path d="M9.06090129,12.2280443 L4.35963375,6.8949246 C4.1124814,6.61626909 3.68936732,6.5896035 3.41132092,6.83226044 C3.13193131,7.07491739 3.1037237,7.49623384 3.34818962,7.77222279 L8.04945716,13.1053425 C8.18243587,13.2560031 8.36780014,13.3333333 8.55450762,13.3333333 C8.71166428,13.3333333 8.86882093,13.2786689 8.99776999,13.1680066 C9.2771596,12.9253497 9.30536721,12.5053665 9.06090129,12.2280443 Z" id="Shape"></path>
                    <path d="M8.96822215,6.17238784 C8.67534282,5.94537233 8.2534891,5.99980295 8.02509697,6.28788697 L3.32290588,12.2619794 C3.09585723,12.551391 3.14825307,12.9695775 3.4411324,13.1939378 C3.56473285,13.2881957 3.70982903,13.3333333 3.85358173,13.3333333 C4.05241724,13.3333333 4.25125275,13.2457133 4.3829141,13.0784387 L9.08510519,7.10434627 C9.31349732,6.8136071 9.26110148,6.39674821 8.96822215,6.17238784 Z" id="Shape"></path>
                </g>
            </g>
        </g>
    </g>
</svg>