<svg xmlns="http://www.w3.org/2000/svg" width="38" height="33" viewBox="0 0 38 33">
    <g fill="#7A8496" fill-rule="nonzero">
        <path d="M36.063 8.027h-23.27c-1.067 0-1.936.84-1.936 1.871v14.988c0 1.031.87 1.87 1.937 1.87h14.598l6.274 6.061a.66.66 0 0 0 .704.136.625.625 0 0 0 .399-.577v-5.62h1.294c1.068 0 1.937-.839 1.937-1.87V9.898c0-1.031-.87-1.871-1.937-1.871zm.645 16.859c0 .343-.29.622-.644.622h-1.94a.635.635 0 0 0-.647.624v4.737l-5.36-5.178a.656.656 0 0 0-.457-.183H12.795a.634.634 0 0 1-.645-.622V9.898c0-.343.29-.622.645-.622h23.269c.355 0 .644.279.644.622v14.988z"/>
        <path d="M25.206 0H1.936C.87 0 0 .84 0 1.871V16.86c0 1.031.87 1.87 1.937 1.87H3.23v5.62c0 .252.158.48.4.576a.658.658 0 0 0 .704-.135l6.273-6.06h1.671a.635.635 0 0 0 .646-.625V9.987c0-.343.289-.622.645-.622h12.927a.635.635 0 0 0 .646-.624V1.87C27.143.84 26.273 0 25.206 0zm.644 8.116H13.57c-1.068 0-1.937.84-1.937 1.871v7.494H10.34a.657.657 0 0 0-.457.183l-5.36 5.178v-4.737a.635.635 0 0 0-.645-.624H1.937a.634.634 0 0 1-.645-.622V1.87c0-.343.29-.622.645-.622h23.269c.355 0 .644.279.644.622v6.245zM24.881 14.27c-1.746 0-3.167 1.4-3.167 3.122 0 1.721 1.42 3.122 3.167 3.122 1.746 0 3.167-1.4 3.167-3.122 0-1.721-1.421-3.122-3.167-3.122zm0 4.995c-1.048 0-1.9-.84-1.9-1.873s.852-1.873 1.9-1.873c1.047 0 1.9.84 1.9 1.873s-.853 1.873-1.9 1.873zM32.119 14.27c-1.746 0-3.167 1.4-3.167 3.122 0 1.721 1.42 3.122 3.167 3.122 1.746 0 3.167-1.4 3.167-3.122 0-1.721-1.42-3.122-3.167-3.122zm0 4.995c-1.047 0-1.9-.84-1.9-1.873s.853-1.873 1.9-1.873c1.048 0 1.9.84 1.9 1.873s-.852 1.873-1.9 1.873z"/>
        <path d="M17.643 14.27c-1.746 0-3.167 1.4-3.167 3.122 0 1.721 1.42 3.122 3.167 3.122 1.746 0 3.167-1.4 3.167-3.122 0-1.721-1.421-3.122-3.167-3.122zm0 4.995c-1.048 0-1.9-.84-1.9-1.873s.852-1.873 1.9-1.873c1.047 0 1.9.84 1.9 1.873s-.853 1.873-1.9 1.873z"/>
    </g>
</svg>
