<svg xmlns="http://www.w3.org/2000/svg" width="27" height="31" viewBox="0 0 27 31">
    <g fill="#7A8496" fill-rule="nonzero">
        <path d="M16.5 11a.5.5 0 1 0 0-1 .5.5 0 0 0 0 1zM10.5 11a.5.5 0 1 0 0-1 .5.5 0 0 0 0 1zM12.356 15.523c.52.316 1.078.477 1.657.477.567 0 1.114-.154 1.626-.458.311-.184.447-.659.304-1.06-.143-.401-.511-.577-.822-.393a2.15 2.15 0 0 1-1.108.312c-.395 0-.775-.11-1.128-.324-.31-.189-.68-.018-.826.382-.146.4-.013.876.297 1.064z"/>
        <path d="M27 24.568c0-3.33-3.833-5.94-7.12-6.064l-1.676-1.49c2.042-1.473 3.281-3.841 3.281-6.358V6.66c0-3.672-3.03-6.66-6.754-6.66h-2.449C8.562 0 5.57 2.977 5.57 6.66v3.996a7.885 7.885 0 0 0 3.238 6.347l-1.689 1.5C3.841 18.628 0 21.233 0 24.569v5.827c0 .334.274.605.612.605h25.776a.609.609 0 0 0 .612-.605v-5.827zm-14.856 2.436h2.709l.641 2.785h-4.01l.66-2.785zm2.761-1.211h-2.8l-.47-1.447 1.865-.922 1.905.942-.5 1.427zM13.5 21.604l-2.127-3.365a8.05 8.05 0 0 0 4.25.005l-2.123 3.36zm.876.9l2.94-4.652L18.9 19.26l-2.017 4.483-2.507-1.24zM12.282 1.21h2.449c3.05 0 5.53 2.444 5.53 5.45v.5l-1.15-1.638a.614.614 0 0 0-.94-.078c-1.244 1.26-2.685 1.82-4.67 1.82-1.986 0-3.427-.56-4.673-1.82a.616.616 0 0 0-.943.083l-1.09 1.58V6.66c0-3.005 2.461-5.45 5.487-5.45zm-5.487 9.445v-1.4l1.7-2.463c1.362 1.145 2.971 1.684 5.005 1.684 2.037 0 3.647-.54 5.01-1.688l1.751 2.495v1.372c0 3.626-2.996 6.66-6.755 6.66-3.746 0-6.711-3.024-6.711-6.66zm2.89 7.196l2.94 4.651-2.508 1.24L8.1 19.26l1.585-1.408zm-8.46 6.716c0-2.494 3.065-4.648 5.743-4.844l2.29 5.09a.619.619 0 0 0 .833.295l.437-.215.496 1.53-.798 3.365H1.224v-5.22zm24.55 5.221H16.75l-.773-3.356.532-1.521.4.198a.618.618 0 0 0 .832-.296l2.29-5.09c2.68.196 5.745 2.35 5.745 4.844v5.221z"/>
        <path d="M21.5 27h-2a.5.5 0 1 0 0 1h2a.5.5 0 1 0 0-1zM24.5 27a.5.5 0 1 1 0 1 .5.5 0 0 1 0-1z"/>
    </g>
</svg>
