<svg xmlns="http://www.w3.org/2000/svg" width="31" height="32" viewBox="0 0 31 32">
    <g fill="#7A8496" fill-rule="nonzero">
        <path d="M15.943 8.889H8.857V16h7.086V8.889zm-1.012 6.095H9.869v-5.08h5.062v5.08zM27.802 8.889h-8.66c-.3 0-.542.199-.542.444 0 .246.242.445.541.445h8.66c.3 0 .542-.199.542-.445 0-.245-.242-.444-.541-.444zM27.802 11.556h-8.66c-.3 0-.542.198-.542.444s.242.444.541.444h8.66c.3 0 .542-.198.542-.444s-.242-.444-.541-.444zM27.802 15.111h-8.66c-.3 0-.542.199-.542.445 0 .245.242.444.541.444h8.66c.3 0 .542-.199.542-.444 0-.246-.242-.445-.541-.445zM26.926 17.778H9.389c-.294 0-.532.198-.532.444s.238.445.532.445h17.537c.294 0 .531-.199.531-.445s-.237-.444-.531-.444zM17.193 21.333H9.378c-.288 0-.52.199-.52.445s.232.444.52.444h7.815c.288 0 .521-.198.521-.444s-.233-.445-.52-.445zM17.193 24.889H9.378c-.288 0-.52.199-.52.444 0 .246.232.445.52.445h7.815c.288 0 .521-.199.521-.445 0-.245-.233-.444-.52-.444zM17.193 27.556H9.378c-.288 0-.52.198-.52.444s.232.444.52.444h7.815c.288 0 .521-.198.521-.444s-.233-.444-.52-.444zM20.371 28.444h7.086v-7.11h-7.086v7.11zm1.013-6.095h5.06v5.08h-5.06v-5.08z"/>
        <path d="M31 6.933c0-.009-.005-.016-.005-.025V0H5.345v16H0v12.8C0 30.565 1.438 32 3.207 32h24.586a3.202 3.202 0 0 0 3.202-3.195V6.96c0-.01.005-.017.005-.026zm-1.074-5.866V6.4H6.414V1.067h23.512zM1.069 28.8V17.067h4.276V28.8a2.138 2.138 0 0 1-4.276 0zm26.724 2.133H5.596l.022-.03a3.18 3.18 0 0 0 .565-.918l.024-.066c.061-.163.112-.331.146-.506l.007-.048c.033-.183.054-.372.054-.565V7.467h23.512v21.338a2.133 2.133 0 0 1-2.133 2.128z"/>
        <path d="M23.914 1.778h-12.4v3.555h12.4V1.778zm-1.033 2.37H12.548V2.963H22.88v1.185z"/>
    </g>
</svg>
