<svg xmlns="http://www.w3.org/2000/svg" width="30" height="30" viewBox="0 0 30 30">
    <g fill="#7A8496" fill-rule="nonzero">
        <path d="M24.41 8.716c.326 0 .59-.263.59-.586V1.758C25 .788 24.206 0 23.231 0H1.77C.794 0 0 .789 0 1.758v26.484C0 29.212.794 30 1.769 30H23.23c.975 0 1.769-.789 1.769-1.758v-4.317a.588.588 0 0 0-.59-.585.588.588 0 0 0-.59.585v4.317a.588.588 0 0 1-.589.586H1.77a.588.588 0 0 1-.59-.586V1.758c0-.323.265-.586.59-.586H23.23c.325 0 .59.263.59.586V8.13c0 .323.264.586.59.586z"/>
        <path d="M12.5 3A5.506 5.506 0 0 0 7 8.5a5.485 5.485 0 0 0 1.79 4.057A5.479 5.479 0 0 0 12.5 14a5.479 5.479 0 0 0 3.773-1.502A5.485 5.485 0 0 0 18 8.5C18 5.467 15.533 3 12.5 3zm0 9.804a4.281 4.281 0 0 1-2.6-.876 2.97 2.97 0 0 1 2.6-1.515 2.97 2.97 0 0 1 2.6 1.515 4.281 4.281 0 0 1-2.6.876zm-.957-4.543v-.389a.958.958 0 0 1 1.914 0v.389a.958.958 0 0 1-1.914 0zm4.42 2.79a4.147 4.147 0 0 0-1.76-1.476c.281-.364.45-.82.45-1.314v-.389A2.155 2.155 0 0 0 12.5 5.72a2.155 2.155 0 0 0-2.152 2.152v.389c0 .495.168.95.45 1.314-.71.314-1.32.823-1.762 1.477a4.28 4.28 0 0 1-.84-2.552A4.31 4.31 0 0 1 12.5 4.196 4.31 4.31 0 0 1 16.804 8.5a4.28 4.28 0 0 1-.84 2.552zM15.46 26h-2.92c-.298 0-.54.224-.54.5s.242.5.54.5h2.92c.298 0 .54-.224.54-.5s-.242-.5-.54-.5zM15.444 22H7.556c-.307 0-.556.224-.556.5s.249.5.556.5h7.888c.307 0 .556-.224.556-.5s-.249-.5-.556-.5zM15.444 19H7.556c-.307 0-.556.224-.556.5s.249.5.556.5h7.888c.307 0 .556-.224.556-.5s-.249-.5-.556-.5zM4.854 16.146a.503.503 0 0 0-.708 0 .504.504 0 0 0 0 .707A.504.504 0 0 0 4.5 17a.504.504 0 0 0 .5-.5.504.504 0 0 0-.146-.354zM4.854 19.146A.504.504 0 0 0 4.5 19a.504.504 0 0 0-.5.5.504.504 0 0 0 .5.5.504.504 0 0 0 .5-.5.504.504 0 0 0-.146-.354zM4.854 22.146A.504.504 0 0 0 4.5 22a.504.504 0 0 0-.5.5.504.504 0 0 0 .5.5.503.503 0 0 0 .5-.5.504.504 0 0 0-.146-.354zM15.444 16H7.556c-.307 0-.556.224-.556.5s.249.5.556.5h7.888c.307 0 .556-.224.556-.5s-.249-.5-.556-.5zM28.727 7.339a2.553 2.553 0 0 0-1.932-.252 2.527 2.527 0 0 0-1.546 1.174l-7.63 13.078a.597.597 0 0 0-.078.234l-.537 4.76a.598.598 0 0 0 .602.667.61.61 0 0 0 .36-.117l3.898-2.84a.601.601 0 0 0 .165-.184l7.63-13.078a2.509 2.509 0 0 0-.932-3.442zM18.363 25.104l.28-2.486 1.755 1.002-2.035 1.484zm2.92-2.364l-2.311-1.32 6.123-10.495 2.31 1.32-6.123 10.495zm7.326-12.559l-.598 1.025-2.31-1.32.598-1.025c.178-.305.465-.524.81-.615a1.337 1.337 0 0 1 1.633.933 1.3 1.3 0 0 1-.133 1.002z"/>
    </g>
</svg>
