<svg xmlns="http://www.w3.org/2000/svg" width="12" height="15" viewBox="0 0 12 15">
    <g fill="#555" fill-rule="nonzero">
        <path d="M11.939 12.652l-1.027-1.789a5.495 5.495 0 0 1-.725-2.734V6.563c0-1.979-1.264-3.652-2.99-4.191V1.25C7.196.56 6.66 0 6 0S4.804.56 4.804 1.25v1.122c-1.728.54-2.991 2.212-2.991 4.19V8.13c0 .963-.25 1.908-.724 2.734L.062 12.65a.324.324 0 0 0-.004.315.296.296 0 0 0 .26.159h11.364c.108 0 .207-.06.26-.158a.326.326 0 0 0-.003-.315zM4.116 13.75C4.454 14.486 5.168 15 6 15c.832 0 1.546-.514 1.883-1.25H4.116z"/>
    </g>
</svg>
