<svg xmlns="http://www.w3.org/2000/svg" width="39" height="39" viewBox="0 0 39 39">
    <g fill="#7A8496" fill-rule="nonzero">
        <path d="M19.5 17c2.481 0 4.5-2.02 4.5-4.5S21.981 8 19.5 8 15 10.02 15 12.5s2.019 4.5 4.5 4.5zm0-7.714a3.218 3.218 0 0 1 3.214 3.214 3.218 3.218 0 0 1-3.214 3.214 3.218 3.218 0 0 1-3.214-3.214A3.218 3.218 0 0 1 19.5 9.286z"/>
        <path d="M19.502 36l10-14.567c3.751-5.044 3.208-13.333-1.16-17.74A12.365 12.365 0 0 0 19.501 0a12.367 12.367 0 0 0-8.84 3.693c-4.37 4.406-4.913 12.697-1.176 17.72L19.502 36zM11.584 4.623a11.077 11.077 0 0 1 7.918-3.308c2.99 0 5.802 1.175 7.917 3.308 3.944 3.976 4.43 11.463 1.026 16.04L19.502 33.69l-8.958-13.046c-3.39-4.558-2.904-12.045 1.04-16.021zM.739 37.217l-.522.522a.738.738 0 1 0 1.044 1.045l.522-.523A.738.738 0 1 0 .74 37.217zM5.524 34a.512.512 0 0 0-.524.5c0 .276.235.5.524.5h.952A.512.512 0 0 0 7 34.5c0-.276-.235-.5-.524-.5h-.952zM3.822 35.178a.608.608 0 0 0-.86 0l-.784.783a.608.608 0 1 0 .86.86l.784-.782a.608.608 0 0 0 0-.86zM12.524 34a.512.512 0 0 0-.524.5c0 .276.235.5.524.5h.952a.512.512 0 0 0 .524-.5c0-.276-.235-.5-.524-.5h-.952zM8.523 34a.512.512 0 0 0-.523.5c0 .276.234.5.523.5h.954a.512.512 0 0 0 .523-.5c0-.276-.234-.5-.523-.5h-.954zM15.667 34c-.368 0-.667.224-.667.5s.299.5.667.5h.666c.368 0 .667-.224.667-.5s-.299-.5-.667-.5h-.666z"/>
        <path d="M.653 35a.686.686 0 0 0 .461-.173l2.528-2.295c.062-.056.13-.106.227-.16l.126-.062c.023-.013.045-.025.07-.034l.243-.069a1.51 1.51 0 0 1 .258-.023h9.782c.36 0 .652-.265.652-.592 0-.327-.292-.592-.652-.592H4.566c-.167 0-.339.015-.516.047a1.971 1.971 0 0 0-.182.047l-.085.023a1.893 1.893 0 0 0-.213.062c-.078.03-.15.065-.223.103l-.062.03c-.055.026-.11.052-.168.087a2.57 2.57 0 0 0-.398.296L.19 33.99a.553.553 0 0 0 0 .837.689.689 0 0 0 .462.173zM37.739 32c.189 0 .378-.072.522-.216l.522-.523a.738.738 0 1 0-1.044-1.044l-.522.522A.738.738 0 0 0 37.739 32zM35.027 32.167l-.86.86a.57.57 0 1 0 .806.806l.86-.86a.57.57 0 1 0-.806-.806zM30.726 34c-.402 0-.726.224-.726.5s.324.5.726.5h1.548c.402 0 .726-.224.726-.5s-.324-.5-.726-.5h-1.548zM26.726 34c-.401 0-.726.224-.726.5s.325.5.726.5h1.548c.401 0 .726-.224.726-.5s-.325-.5-.726-.5h-1.548zM22.667 34c-.368 0-.667.224-.667.5s.299.5.667.5h.666c.368 0 .667-.224.667-.5s-.299-.5-.667-.5h-.666z"/>
        <path d="M37.893 34.189l-2.512 2.498c-.06.06-.127.115-.225.175l-.121.065c-.026.014-.052.03-.078.04-.02.01-.041.014-.062.02l-.18.054a1.261 1.261 0 0 1-.252.025H5.225l-.983.787a.642.642 0 0 0-.099.907.648.648 0 0 0 .911.098l.628-.503h28.78c.17 0 .34-.016.506-.05.066-.013.128-.031.19-.052l.082-.024a1.78 1.78 0 0 0 .217-.071c.076-.032.147-.07.219-.11l.064-.035c.055-.028.11-.057.16-.09.143-.095.277-.204.398-.325L38.81 35.1a.641.641 0 0 0 0-.911.65.65 0 0 0-.917 0zM25 31.4c0 .332.294.6.656.6h7.99l2.162-1.976a.564.564 0 0 0 0-.848.7.7 0 0 0-.929 0L33.103 30.8h-7.447c-.362 0-.656.268-.656.6z"/>
    </g>
</svg>
