<svg xmlns="http://www.w3.org/2000/svg" width="14" height="14" viewBox="0 0 14 14">
    <path fill="#545454" fill-rule="nonzero" d="M13.69 5.782l-1.607-.395a5.3 5.3 0 0 0-.37-.882l.748-1.246a.41.41 0 0 0-.062-.501l-1.16-1.16a.409.409 0 0 0-.501-.062l-1.248.748a5.284 5.284 0 0 0-.877-.367L8.218.31A.41.41 0 0 0 7.82 0H6.18a.41.41 0 0 0-.398.31s-.274 1.122-.395 1.606a5.266 5.266 0 0 0-.93.397l-1.295-.777a.411.411 0 0 0-.5.062l-1.16 1.16a.41.41 0 0 0-.062.5l.8 1.338c-.129.254-.237.519-.323.79L.31 5.782A.41.41 0 0 0 0 6.18v1.64a.41.41 0 0 0 .31.398l1.607.395c.097.309.224.609.377.897l-.716 1.193a.41.41 0 0 0 .062.501l1.16 1.16c.133.133.34.158.501.062l1.196-.717c.285.152.583.277.89.375l.395 1.605A.41.41 0 0 0 6.18 14h1.64a.41.41 0 0 0 .398-.31l.395-1.606c.316-.1.62-.23.91-.387l1.215.73a.41.41 0 0 0 .5-.063l1.16-1.16a.41.41 0 0 0 .063-.5l-.738-1.23c.146-.275.266-.564.36-.861l1.606-.395A.41.41 0 0 0 14 7.82V6.18a.41.41 0 0 0-.31-.398zM7 9.872A2.875 2.875 0 0 1 4.129 7 2.875 2.875 0 0 1 7 4.129 2.875 2.875 0 0 1 9.871 7 2.875 2.875 0 0 1 7 9.871z"/>
</svg>
