<svg xmlns="http://www.w3.org/2000/svg" width="31" height="24" viewBox="0 0 31 24">
    <g fill="#7A8496" fill-rule="nonzero">
        <path d="M13.856 15.568c.18.674.9 1.069 1.604.88.701-.188 1.124-.888.943-1.563l2.758-6.676-4.438 5.816c-.655.219-1.041.893-.867 1.543zM9.178 20.855h12.641v3.123H9.178z"/>
        <path d="M26.457 4.744C23.53 1.696 19.637.018 15.498.018c-4.14 0-8.032 1.678-10.959 4.726C1.612 7.792 0 11.844 0 16.154c0 2.783.673 5.457 1.938 7.824h2.896l2.119-1.273-.936-1.688-2.724 1.638a14.664 14.664 0 0 1-1.506-6.501c0-.414.018-.824.051-1.23l3.249.597.325-1.919L2.125 13a14.437 14.437 0 0 1 3.74-6.993l2.227 2.763 1.433-1.252-2.243-2.784a13.316 13.316 0 0 1 7.28-2.82v3.695h1.872V1.913a13.318 13.318 0 0 1 7.28 2.82l-2.243 2.784 1.433 1.252 2.227-2.763a14.438 14.438 0 0 1 3.74 6.993l-3.286.603.325 1.919 3.248-.596a15 15 0 0 1 .051 1.229c0 2.34-.543 4.55-1.506 6.5l-2.724-1.637-.936 1.688 2.119 1.273h2.896a16.563 16.563 0 0 0 1.938-7.824c0-4.31-1.612-8.362-4.54-11.41z"/>
    </g>
</svg>
