<svg xmlns="http://www.w3.org/2000/svg" width="36" height="36" viewBox="0 0 36 36">
    <g fill="#7A8496" fill-rule="nonzero">
        <path d="M35.996 23.5a2.624 2.624 0 0 0-1.089-1.979 2.75 2.75 0 0 0-3.454.189L25.648 27c.035-1.163-.747-2.19-1.918-2.482l-7.09-1.76a6.918 6.918 0 0 0-3.764.12l-4.901 1.557v-1.38a.696.696 0 0 0-.703-.688H.703a.696.696 0 0 0-.703.688v12.257c0 .38.315.688.703.688h6.569a.696.696 0 0 0 .703-.688v-9.43l5.335-1.695c.967-.307 2-.34 2.985-.096l7.09 1.761c.55.137.909.638.852 1.191a1.126 1.126 0 0 1-1.133 1.004H17.46a.696.696 0 0 0-.703.688c0 .38.314.688.703.688h2.217a.722.722 0 0 0 .08.005h3.488a4.624 4.624 0 0 0 3.123-1.203l6.043-5.508a1.32 1.32 0 0 1 1.658-.09 1.253 1.253 0 0 1 .111 1.95l-8.325 7.584a3.12 3.12 0 0 1-2.107.811H12.853a.696.696 0 0 0-.703.689c0 .38.315.688.703.688h10.895c1.142 0 2.23-.42 3.066-1.18l8.324-7.585a2.61 2.61 0 0 0 .858-2.085zM6.569 34.623H1.406v-10.88H6.57v10.88z"/>
        <path d="M10.707 33.293A1.007 1.007 0 0 0 10 33c-.263 0-.521.107-.707.293A1.008 1.008 0 0 0 9 34c0 .263.107.521.293.707.187.186.444.293.707.293.263 0 .52-.107.707-.293.186-.186.293-.444.293-.707 0-.263-.107-.521-.293-.707zM5.708 32.292a1.006 1.006 0 0 0-1.415 0A1.012 1.012 0 0 0 4 33c0 .263.107.52.293.707.187.186.444.293.707.293.263 0 .521-.107.708-.293a1.007 1.007 0 0 0 0-1.415zM16.273 0h-.79c-3.535 0-6.41 2.826-6.41 6.3v1.857C6.79 8.374 5 10.27 5 12.568 5 15.012 7.023 17 9.51 17h.29c.402 0 .727-.32.727-.715V6.3c0-2.685 2.223-4.87 4.956-4.87h.79c.401 0 .727-.32.727-.715A.721.721 0 0 0 16.273 0zm-7.2 14.335v1.205c-1.479-.209-2.618-1.462-2.618-2.972s1.14-2.763 2.618-2.971v4.738z"/>
        <path d="M18.02 0h-.04A.99.99 0 0 0 17 1c0 .552.439 1 .98 1h.04A.99.99 0 0 0 19 1a.99.99 0 0 0-.98-1zM27.095 8.042V6.21C27.095 2.786 24.338 0 20.95 0h-.782a.701.701 0 0 0-.697.705c0 .389.312.704.697.704h.782c2.62 0 4.75 2.154 4.75 4.802v11.817c0 .24-.192.435-.43.435h-5.19a1.815 1.815 0 0 0-1.672-1.127h-1.596c-1 0-1.812.821-1.812 1.83v.003c0 1.01.813 1.831 1.812 1.831h1.596c.752 0 1.398-.466 1.672-1.128h5.19a1.837 1.837 0 0 0 1.825-1.844v-1.29C29.283 16.526 31 14.658 31 12.39c0-2.266-1.717-4.135-3.905-4.348zM18.408 19.59h-1.596a.42.42 0 0 1-.417-.422v-.002a.42.42 0 0 1 .417-.422h1.596c.23 0 .417.19.417.424a.42.42 0 0 1-.417.422zm8.687-4.271V9.46a2.954 2.954 0 0 1 2.51 2.93 2.954 2.954 0 0 1-2.51 2.929z"/>
        <path d="M23.337 7.793h-.62a5.44 5.44 0 0 0-.32-.775l.437-.438a.663.663 0 0 0 0-.938l-1.476-1.476a.663.663 0 0 0-.938 0l-.438.437a5.443 5.443 0 0 0-.775-.32v-.62A.663.663 0 0 0 18.544 3h-2.088a.663.663 0 0 0-.663.663v.621a5.44 5.44 0 0 0-.773.321l-.44-.44a.664.664 0 0 0-.938 0l-1.476 1.477a.663.663 0 0 0 0 .938l.441.442a5.426 5.426 0 0 0-.319.77h-.625a.663.663 0 0 0-.663.664v2.088c0 .366.297.663.663.663h.627c.087.265.193.521.32.77l-.444.443a.663.663 0 0 0 0 .938l1.476 1.476c.26.26.679.26.938 0l.444-.443c.248.126.505.232.769.319v.627c0 .366.297.663.663.663h2.088a.663.663 0 0 0 .663-.663v-.625c.265-.087.523-.193.771-.32l.442.442c.26.26.679.26.938 0l1.477-1.476a.663.663 0 0 0 0-.938l-.44-.44c.127-.249.234-.507.32-.773h.622a.663.663 0 0 0 .663-.663V8.456a.663.663 0 0 0-.663-.663zm-.664 2.088h-.46a.668.668 0 0 0-.65.523 4.121 4.121 0 0 1-.554 1.33.663.663 0 0 0 .09.826l.328.329-.538.538-.33-.33a.663.663 0 0 0-.825-.09c-.41.261-.858.446-1.332.55a.663.663 0 0 0-.521.649v.467h-.762v-.469a.663.663 0 0 0-.52-.647 4.123 4.123 0 0 1-1.33-.552.663.663 0 0 0-.826.09l-.332.332-.538-.538.332-.332a.663.663 0 0 0 .09-.826 4.121 4.121 0 0 1-.552-1.33.663.663 0 0 0-.647-.52h-.47v-.762h.467a.666.666 0 0 0 .65-.521 4.12 4.12 0 0 1 .55-1.332.663.663 0 0 0-.09-.825l-.33-.33.538-.538.328.328c.22.22.564.258.827.09.407-.26.851-.446 1.322-.551a.664.664 0 0 0 .531-.65v-.463h.762v.458a.672.672 0 0 0 .524.652c.474.105.922.29 1.332.552.262.167.606.13.826-.09l.326-.326.538.538-.325.325a.666.666 0 0 0-.09.83c.26.407.444.85.55 1.32.06.304.328.533.65.533h.461v.762z"/>
        <path d="M17.5 7A2.503 2.503 0 0 0 15 9.5c0 1.378 1.122 2.5 2.5 2.5S20 10.878 20 9.5 18.878 7 17.5 7zm0 3.684A1.186 1.186 0 0 1 16.316 9.5c0-.653.531-1.184 1.184-1.184.653 0 1.184.531 1.184 1.184 0 .653-.531 1.184-1.184 1.184zM5 24c-.552 0-1 .302-1 .674v4.652c0 .372.448.674 1 .674s1-.302 1-.674v-4.652C6 24.302 5.552 24 5 24z"/>
    </g>
</svg>
