<svg xmlns="http://www.w3.org/2000/svg" width="28" height="34" viewBox="0 0 28 34">
    <g fill="#7A8496" fill-rule="nonzero">
        <path d="M24.474 24.937l-6.884-1.29v-2.081l.523-.205c1.958-.767 3.273-2.807 3.273-5.077v-2.309h.186c.746 0 1.353-.604 1.353-1.347v-2.02c0-.742-.607-1.347-1.353-1.347h-.186V4.745c0-.872-.553-1.62-1.346-1.818l-4.396-1.102a6.726 6.726 0 0 0-.446-.095c.043-.13.068-.27.068-.414a1.32 1.32 0 1 0-2.567.433 6.68 6.68 0 0 0-.343.076L7.96 2.927c-.792.199-1.345.946-1.345 1.818v4.628h-.186c-.746 0-1.353.605-1.353 1.348v2.019c0 .743.607 1.347 1.353 1.347h.186v2.197c0 .138.005.276.014.413a.506.506 0 0 0 1.012-.07 4.92 4.92 0 0 1-.012-.343v-5.245l.137.127c.908.842 2.066 1.306 3.26 1.306h5.773c1.197 0 2.358-.466 3.268-1.313l.306-.286v5.411c0 1.858-1.057 3.52-2.63 4.137l-2.181.854a4.266 4.266 0 0 1-3.122 0l-2.181-.854c-.918-.36-1.681-1.083-2.148-2.035a.508.508 0 0 0-.912.443c.58 1.18 1.534 2.08 2.689 2.532l.352.138v2.18l-5.33.999-.008.001H4.9l-1.374.258A4.318 4.318 0 0 0 0 29.174v4.096c0 .403.328.73.732.73h26.536a.732.732 0 0 0 .732-.73v-4.096a4.318 4.318 0 0 0-3.526-4.237zm-3.088-14.665h.186c.187 0 .339.15.339.337v2.019a.338.338 0 0 1-.339.337h-.186v-2.693zM6.614 13.077h-.186a.338.338 0 0 1-.339-.337V10.72c0-.186.152-.337.339-.337h.186v2.693zm7.331-12.066c.17 0 .307.137.307.305a.306.306 0 0 1-.614 0c0-.168.138-.305.307-.305zm6.427 7.864h-9.167a.506.506 0 1 0 0 1.01h8.743l-.575.535c-.721.672-1.636 1.042-2.575 1.042h-5.773c-.937 0-1.849-.368-2.57-1.036l-.582-.54h1.28a.506.506 0 1 0 0-1.01H7.627v-4.13c0-.402.243-.755.579-.839l4.397-1.102a5.762 5.762 0 0 1 2.792 0l4.397 1.102c.336.084.579.437.579.838v4.13zM4.486 32.989H1.014v-3.815a3.306 3.306 0 0 1 2.7-3.244l.772-.145v7.204zm6.767-8.883v-2.21l.815.32a5.292 5.292 0 0 0 3.864 0l.644-.253V24.3a2.66 2.66 0 0 1-2.661 2.652 2.66 2.66 0 0 1-2.662-2.652v-.193zM6.595 32.99H5.5v-7.393l1.095-.201v7.594zm13.449 0H7.609V25.2l2.653-.498a3.676 3.676 0 0 0 3.653 3.259c1.9 0 3.469-1.445 3.657-3.29l2.472.464v7.854zm6.942 0h-3.819v-3.885a.506.506 0 0 0-1.014 0v3.884h-1.095v-7.645l1.095.239v1.61a.506.506 0 0 0 1.014 0V25.72l1.12.21a3.305 3.305 0 0 1 2.699 3.244v3.815z"/>
        <circle cx="10.5" cy="14.5" r="1"/>
        <circle cx="17.5" cy="14.5" r="1"/>
        <path d="M12.696 14c-.168 0-.305.185-.305.413v1.761h-.087c-.168 0-.304.185-.304.413 0 .228.136.413.304.413h.094c.332 0 .602-.366.602-.816v-1.771c0-.228-.136-.413-.304-.413zM14.948 18.193c-.117-.175-.398-.243-.626-.153a3.642 3.642 0 0 1-2.644 0c-.228-.09-.509-.022-.626.153-.118.175-.028.39.2.48a4.816 4.816 0 0 0 1.749.327h.021a4.816 4.816 0 0 0 1.725-.327c.229-.09.319-.305.201-.48zM17.448 5h-6.896c-.305 0-.552.206-.552.46v2.08c0 .254.247.46.552.46h6.896c.305 0 .552-.206.552-.46V5.46c0-.254-.247-.46-.552-.46zm-.552 2.08h-5.792V5.92h5.792v1.16z"/>
    </g>
</svg>
