<svg xmlns="http://www.w3.org/2000/svg" width="14" height="14" viewBox="0 0 14 14">
    <g fill="#555" fill-rule="nonzero">
        <path d="M7.412 7.412c1.819 0 3.294-1.66 3.294-3.706C10.706.868 9.23 0 7.412 0c-1.82 0-3.294.868-3.294 3.706 0 2.047 1.474 3.706 3.294 3.706z"/>
        <path d="M13.932 12.847L12.348 9.15a.812.812 0 0 0-.358-.395L9.532 7.43a.154.154 0 0 0-.168.015A3.807 3.807 0 0 1 7 8.278a3.806 3.806 0 0 1-2.364-.833.154.154 0 0 0-.168-.015L2.01 8.756a.812.812 0 0 0-.358.395L.068 12.847a.843.843 0 0 0 .06.78.782.782 0 0 0 .664.373h12.416c.269 0 .517-.14.664-.373a.843.843 0 0 0 .06-.78z"/>
    </g>
</svg>
