<?xml version="1.0" encoding="utf-8"?>
<!-- Generator: Adobe Illustrator 16.0.0, SVG Export Plug-In . SVG Version: 6.00 Build 0)  -->
<!DOCTYPE svg PUBLIC "-//W3C//DTD SVG 1.1//EN" "http://www.w3.org/Graphics/SVG/1.1/DTD/svg11.dtd">
<svg version="1.1" id="Layer_1" xmlns="http://www.w3.org/2000/svg" xmlns:xlink="http://www.w3.org/1999/xlink" x="0px" y="0px"
	 width="64.588px" height="49.092px" viewBox="0 0 64.588 49.092" enable-background="new 0 0 64.588 49.092" xml:space="preserve">
<g>
	<defs>
		<rect id="SVGID_1_" width="64.588" height="49.092"/>
	</defs>
	<clipPath id="SVGID_2_">
		<use xlink:href="#SVGID_1_"  overflow="visible"/>
	</clipPath>
	<path clip-path="url(#SVGID_2_)" fill="none" stroke="#F0483F" stroke-width="0.576" stroke-miterlimit="10" d="M32.038,9.411
		l-0.013,0.054c-0.052,0.335,0.053,0.669,0.27,0.932c0.316-0.384,0.385-0.928,0.11-1.376l-0.11-0.116l-0.109,0.116
		C32.11,9.145,32.065,9.275,32.038,9.411z"/>
</g>
<polygon fill="none" stroke="#F0483F" stroke-width="0.576" stroke-miterlimit="10" points="6.899,26.202 6.927,26.184 6.899,26.2 
	"/>
<polygon fill="none" stroke="#F0483F" stroke-width="0.576" stroke-miterlimit="10" points="31.015,37.114 29.488,38.06 
	31.015,39.005 "/>
<g>
	<defs>
		<rect id="SVGID_3_" width="64.588" height="49.092"/>
	</defs>
	<clipPath id="SVGID_4_">
		<use xlink:href="#SVGID_3_"  overflow="visible"/>
	</clipPath>
	<path clip-path="url(#SVGID_4_)" fill="none" stroke="#F0483F" stroke-width="0.576" stroke-miterlimit="10" d="M6.899,26.2
		l0.028-0.017l-0.03,0.015c-0.14,0.074-0.271,0.154-0.397,0.249l0.399-0.245V26.2z"/>
	<path clip-path="url(#SVGID_4_)" fill="none" stroke="#F0483F" stroke-width="0.576" stroke-miterlimit="10" d="M26.641,33.524
		c-0.781-0.636-1.516-1.341-2.195-2.116l-7.952,4.923L19.3,38.07l0.77-0.476c0.17-0.138,0.356-0.258,0.561-0.35L26.641,33.524z"/>
	<path clip-path="url(#SVGID_4_)" fill="none" stroke="#F0483F" stroke-width="0.576" stroke-miterlimit="10" d="M21.546,26.908
		c-0.423-0.932-0.766-1.883-1.021-2.845L9.748,30.735l-0.325,0.2l-0.091,0.059l0.097-0.054c0.617,0.781,1.317,1.508,2.1,2.167
		l0.427-0.264l0.785-0.485L21.546,26.908z"/>
	<path clip-path="url(#SVGID_4_)" fill="none" stroke="#F0483F" stroke-width="0.576" stroke-miterlimit="10" d="M19.964,18.112
		l8.37-5.181l0.004,0.007l3.605-2.23l0.134-0.085l0.217-0.227c-0.217-0.263-0.322-0.597-0.27-0.931l0.013-0.055
		c0.028-0.134,0.073-0.266,0.148-0.39l0.109-0.115c0.371-0.45,1.008-0.587,1.524-0.282l0.037,0.023l10.298,6.431l2.067,1.291
		c0.584,0.408,1.328,0.578,2.076,0.405c1.403-0.326,2.277-1.726,1.953-3.127c-0.166-0.717-0.615-1.291-1.197-1.641l-0.073-0.046
		L36.078,3.902l-0.007,0.007l-0.03-0.021c-1.203-0.746-2.463-1.315-3.747-1.751c-3.172-1.078-6.517-1.249-9.681-0.567
		c-0.742,0.158-1.471,0.361-2.185,0.611c-0.643,0.224-1.271,0.487-1.887,0.783c-1.292,0.262-2.68,0.057-3.89-0.69l-2.877-1.782
		L0.492,18.716l2.614,1.617l1.626,1.006c0.839,0.758,1.399,1.74,1.637,2.798l0.047,0.25c0.071,0.384,0.17,0.761,0.272,1.137
		c0.063,0.227,0.136,0.452,0.208,0.676l0.031-0.016L19.964,18.112z"/>
	<path clip-path="url(#SVGID_4_)" fill="none" stroke="#F0483F" stroke-width="0.576" stroke-miterlimit="10" d="M52.814,0.492
		l-2.878,1.782c-1.21,0.747-2.597,0.952-3.889,0.69c-0.614-0.296-1.245-0.559-1.888-0.783c-0.715-0.25-1.443-0.453-2.183-0.611
		c-3.167-0.682-6.512-0.511-9.683,0.567c1.283,0.436,2.543,1.005,3.744,1.751l0.033,0.021l0.006-0.007l12.901,8.057l0.073,0.046
		c0.583,0.35,1.031,0.924,1.197,1.641c0.324,1.401-0.549,2.801-1.953,3.127c-0.747,0.173-1.491,0.003-2.076-0.405l-2.066-1.291
		L33.855,8.646l-0.037-0.023c-0.515-0.305-1.153-0.168-1.523,0.282l0.11,0.115c0.275,0.448,0.206,0.993-0.11,1.376l-0.217,0.227
		l-0.134,0.085l-3.606,2.23l-0.003-0.007l-8.37,5.181l-13.038,8.07l-0.028,0.02L6.5,26.447c-0.648,0.494-1.073,1.264-1.073,2.143
		c0,1.491,1.207,2.699,2.699,2.699c0.436,0,0.843-0.114,1.206-0.296l0.091-0.058l0.325-0.199l10.777-6.672
		c0.255,0.962,0.598,1.913,1.021,2.844l-8.805,5.45l-0.785,0.485c-0.563,0.494-0.927,1.211-0.927,2.02
		c0,1.492,1.209,2.699,2.7,2.699c0.711,0,1.355-0.28,1.837-0.731l0.038,0.052l0.89-0.551l7.952-4.924
		c0.679,0.774,1.414,1.48,2.195,2.116l-6.009,3.722c-0.205,0.09-0.391,0.212-0.562,0.348c-0.624,0.49-1.03,1.241-1.03,2.094
		c0,1.48,1.2,2.679,2.682,2.679c0.777,0,1.472-0.334,1.961-0.863l0.08,0.104l0.639-0.396l5.087-3.149l1.526-0.945v-0.097v-1.263
		l-0.013-0.257l0.013-0.257c0.131-1.362,1.278-2.428,2.675-2.428c1.471,0.002,2.668,1.188,2.682,2.658V35.5v0.027l-0.002,3.318
		l-0.002,4.729l2.955-1.83v-0.357l-0.004-0.025l0.004-0.026v-2.858l0.004-4.1v-2.111v-0.718l-0.008-0.128l0.008-0.129
		c0.031-0.665,0.306-1.267,0.736-1.718c0.488-0.51,1.172-0.829,1.936-0.831c0.763,0.002,1.447,0.321,1.936,0.831
		c0.459,0.481,0.741,1.131,0.741,1.849l-0.005,0.13l0.012-0.002v2.667l-0.001,4.23l2.954-1.83v-3.062l0.002-3.806v-0.008
		l-0.003-0.097l0.017-0.25v-0.329h0.053c0.183-0.814,0.733-1.49,1.472-1.838c0.347-0.165,0.731-0.265,1.14-0.265
		c1.283,0.002,2.35,0.901,2.613,2.103h0.051v0.417l0.012,0.107l0.008,0.059l-0.008,0.122v3.396c2.008-1.675,3.502-3.789,4.412-6.116
		c0.338-0.862,0.596-1.756,0.772-2.664l0.044-0.25c0.24-1.058,0.799-2.041,1.639-2.797l1.625-1.007l2.613-1.617L52.814,0.492z"/>
	<path clip-path="url(#SVGID_4_)" fill="none" stroke="#F0483F" stroke-width="0.576" stroke-miterlimit="10" d="M44.682,31.55
		l-0.012,0.002l0.005-0.13c0-0.718-0.282-1.367-0.741-1.848c-0.488-0.512-1.174-0.83-1.936-0.832
		c-0.764,0.002-1.447,0.32-1.936,0.832c-0.431,0.449-0.705,1.052-0.735,1.717l-0.009,0.129l0.009,0.128l-0.001,0.718v2.111
		l-0.004,4.099v2.859l-0.004,0.026l0.004,0.026v0.357l0.033-0.022c0.18,1.307,1.285,2.315,2.64,2.315
		c1.362,0,2.476-1.024,2.642-2.343h0.022v-0.218l0.012-0.116l-0.012-0.117v-2.785l0.022-0.012v-4.229V31.55z"/>
	<path clip-path="url(#SVGID_4_)" fill="none" stroke="#F0483F" stroke-width="0.576" stroke-miterlimit="10" d="M36.371,35.526
		v-0.025v-0.028c-0.014-1.47-1.21-2.657-2.682-2.659c-1.396,0-2.544,1.066-2.674,2.428l-0.013,0.258l0.013,0.258v1.261v0.097v1.891
		l-1.527-0.945l-5.087,3.151l2.806,1.735l0.769-0.476l0.058-0.035l2.978-1.845v1.887v1.257l-0.001,3.149v0.007l0.14-0.086
		c0.341,1.082,1.343,1.87,2.538,1.87c1.361,0,2.475-1.023,2.642-2.341h0.022v-0.218L36.366,46l-0.013-0.117v-2.299l0.015-0.011
		l0.001-4.728L36.371,35.526z"/>
	<path clip-path="url(#SVGID_4_)" fill="none" stroke="#F0483F" stroke-width="0.576" stroke-miterlimit="10" d="M52.998,29.649
		l-0.008-0.059l-0.012-0.107v-0.417h-0.051c-0.264-1.201-1.33-2.101-2.613-2.103c-0.408,0-0.793,0.101-1.14,0.264
		c-0.739,0.349-1.289,1.024-1.472,1.839H47.65v0.328l-0.017,0.25l0.003,0.098v0.008l-0.002,3.806v3.062l0.016-0.01v0.432
		l-0.012,0.112l0.012,0.113v0.222h0.023c0.166,1.317,1.277,2.342,2.641,2.342c1.362,0,2.477-1.024,2.641-2.342h0.023v-0.219
		l0.012-0.116l-0.012-0.115v-3.86l0.012-0.009v-3.395L52.998,29.649z"/>
	<path clip-path="url(#SVGID_4_)" fill="none" stroke="#F0483F" stroke-width="0.576" stroke-miterlimit="10" d="M31.013,42.478
		v-1.887l-2.978,1.845l-0.059,0.035c-0.704,0.483-1.166,1.291-1.166,2.207c0,1.481,1.2,2.68,2.68,2.68
		c0.566,0,1.088-0.177,1.522-0.474l0.001-3.148V42.478z"/>
</g>
</svg>
