<?xml version="1.0" encoding="utf-8"?>
<!-- Generator: Adobe Illustrator 16.0.0, SVG Export Plug-In . SVG Version: 6.00 Build 0)  -->
<!DOCTYPE svg PUBLIC "-//W3C//DTD SVG 1.1//EN" "http://www.w3.org/Graphics/SVG/1.1/DTD/svg11.dtd">
<svg version="1.1" id="Layer_1" xmlns="http://www.w3.org/2000/svg" xmlns:xlink="http://www.w3.org/1999/xlink" x="0px" y="0px"
	 width="60.773px" height="62.07px" viewBox="0 0 60.773 62.07" enable-background="new 0 0 60.773 62.07" xml:space="preserve">
<path fill="#FFFFFF" d="M49.714,19.236l5.662-5.71c0.167-0.167,0.248-0.407,0.214-0.639c-0.034-0.236-0.179-0.44-0.389-0.556
	L36.607,2.253c-0.297-0.159-0.657-0.106-0.896,0.129l-5.709,5.709l-5.705-5.709c-0.146-0.141-0.334-0.222-0.535-0.222
	c-0.126,0-0.25,0.033-0.361,0.093l-5.974,3.235c-0.178,0.098-0.304,0.257-0.364,0.449c-0.056,0.196-0.034,0.398,0.062,0.576
	c0.133,0.245,0.389,0.398,0.667,0.398c0.124,0,0.252-0.033,0.36-0.091l5.475-2.968l5.127,5.125l-17.255,9.327l-5.083-5.127
	l9.078-4.917c0.179-0.098,0.308-0.256,0.363-0.448c0.056-0.195,0.04-0.399-0.057-0.579c-0.133-0.244-0.386-0.397-0.665-0.397
	c-0.124,0-0.25,0.033-0.361,0.091l-9.963,5.401c-0.21,0.112-0.357,0.319-0.39,0.557c-0.038,0.229,0.043,0.472,0.21,0.64l5.661,5.71
	l-5.661,5.708c-0.167,0.167-0.248,0.409-0.21,0.641c0.034,0.237,0.176,0.442,0.386,0.556l5.798,3.145v13.641
	c0,0.026,0,0.05,0.004,0.08c0,0.009,0.002,0.018,0.002,0.028c0.003,0.013,0.003,0.031,0.007,0.041
	c0.002,0.016,0.009,0.029,0.012,0.049c0.002,0.007,0.002,0.012,0.008,0.021c0.002,0.016,0.009,0.031,0.016,0.047
	c0.002,0.007,0.005,0.016,0.009,0.021c0.005,0.018,0.012,0.029,0.018,0.045c0.002,0.005,0.01,0.014,0.013,0.025
	c0.006,0.01,0.013,0.021,0.02,0.029c0.005,0.016,0.012,0.026,0.021,0.034c0.004,0.009,0.009,0.018,0.017,0.024
	c0.009,0.013,0.019,0.026,0.025,0.038c0.006,0.005,0.012,0.012,0.019,0.018c0.01,0.013,0.023,0.026,0.031,0.037
	c0.006,0.004,0.012,0.009,0.018,0.016c0.017,0.009,0.026,0.023,0.037,0.031c0.013,0.012,0.025,0.019,0.038,0.027
	c0.007,0.007,0.012,0.012,0.021,0.017c0.022,0.016,0.044,0.033,0.068,0.042l18.64,10.074c0.025,0.014,0.052,0.028,0.08,0.039
	c0.006,0,0.014,0.004,0.021,0.007c0.021,0.006,0.042,0.016,0.064,0.021c0.009,0,0.016,0.003,0.025,0.007
	c0.023,0.004,0.043,0.011,0.063,0.011c0.01,0.002,0.02,0.002,0.026,0.005c0.027,0.004,0.058,0.004,0.085,0.004
	c0.03,0,0.059,0,0.086-0.004c0.009-0.003,0.016-0.003,0.022-0.005c0.022,0,0.043-0.007,0.065-0.011
	c0.009-0.004,0.016-0.007,0.022-0.007c0.021-0.006,0.046-0.016,0.065-0.021c0.005-0.003,0.012-0.007,0.018-0.007
	c0.03-0.012,0.06-0.026,0.086-0.039l18.633-10.074c0.027-0.013,0.045-0.027,0.068-0.042c0.012-0.005,0.019-0.01,0.024-0.017
	c0.012-0.009,0.026-0.016,0.034-0.027c0.016-0.009,0.027-0.023,0.036-0.031c0.007-0.007,0.014-0.012,0.019-0.016
	c0.01-0.012,0.022-0.028,0.033-0.037c0.008-0.006,0.01-0.013,0.021-0.018c0.009-0.014,0.015-0.026,0.024-0.038
	c0.006-0.007,0.012-0.016,0.02-0.024c0.006-0.01,0.012-0.02,0.019-0.034c0.007-0.01,0.012-0.021,0.019-0.029
	c0.002-0.012,0.009-0.021,0.015-0.025c0.005-0.016,0.014-0.027,0.021-0.045c0.003-0.005,0.007-0.014,0.007-0.021
	c0.006-0.016,0.016-0.031,0.018-0.047c0.003-0.01,0.003-0.015,0.007-0.021c0.004-0.02,0.011-0.033,0.013-0.049
	c0.004-0.014,0.004-0.029,0.007-0.041c0-0.012,0.003-0.021,0.003-0.028c0.006-0.029,0.006-0.054,0.006-0.08V29.284l5.796-3.145
	c0.21-0.112,0.354-0.318,0.389-0.556c0.034-0.232-0.043-0.474-0.213-0.641L49.714,19.236z M36.384,3.851l17.212,9.325l-5.086,5.125
	L31.259,8.974L36.384,3.851z M30.003,10.016l17.055,9.22l-17.055,9.218l-17.055-9.218L30.003,10.016z M11.498,20.168l17.255,9.326
	l-5.127,5.129l-11.902-6.454l-0.006-0.004l-5.303-2.872L11.498,20.168z M23.403,36.22c0.115,0.063,0.238,0.088,0.359,0.088
	c0.197,0,0.389-0.074,0.538-0.218l4.951-4.952v20.597l-17.135-9.261V30.102L23.403,36.22z M48.298,28.165
	c-0.007,0.004-0.01,0.006-0.016,0.006l-3.766,2.045c-0.177,0.093-0.307,0.256-0.363,0.448c-0.059,0.188-0.035,0.398,0.061,0.572
	c0.133,0.245,0.39,0.396,0.663,0.396c0.128,0,0.252-0.031,0.359-0.09l2.659-1.439v12.372l-17.134,9.26V31.138l4.951,4.952
	c0.145,0.142,0.334,0.221,0.533,0.221c0.128,0,0.251-0.028,0.363-0.091l5.97-3.238c0.181-0.095,0.31-0.255,0.365-0.447
	C43,32.34,42.98,32.136,42.885,31.96c-0.134-0.248-0.389-0.399-0.667-0.399c-0.125,0-0.249,0.033-0.36,0.097l-5.477,2.968
	l-5.128-5.128l17.259-9.329l5.081,5.125L48.298,28.165z"/>
</svg>
