<?xml version="1.0" encoding="UTF-8"?>
<svg width="12px" height="14px" viewBox="0 0 12 14" version="1.1" xmlns="http://www.w3.org/2000/svg" xmlns:xlink="http://www.w3.org/1999/xlink">
    <!-- Generator: Sketch 51.2 (57519) - http://www.bohemiancoding.com/sketch -->
    <title>bin</title>
    <desc>Created with Sketch.</desc>
    <defs></defs>
    <g id="Page-1" stroke="none" stroke-width="1" fill="none" fill-rule="evenodd">
        <g id="Page-9----Notifications" transform="translate(-1274.000000, -127.000000)" fill="#000000" fill-rule="nonzero">
            <g id="delete" transform="translate(1249.000000, 118.000000)">
                <g id="Group-6" transform="translate(25.000000, 8.000000)">
                    <g id="bin" transform="translate(0.000000, 1.000000)">
                        <path d="M10.8,1.6 L8.8,1.6 L8.8,1.2 C8.8,0.53832 8.26168,0 7.6,0 L4.4,0 C3.73832,0 3.2,0.53832 3.2,1.2 L3.2,1.6 L1.2,1.6 C0.53832,1.6 0,2.13832 0,2.8 C0,3.33141333 0.347333333,3.78296 0.8268,3.94029333 L1.54026667,12.55296 C1.59165333,13.17 2.11693333,13.6533333 2.73610667,13.6533333 L9.26389333,13.6533333 C9.88309333,13.6533333 10.4083733,13.17 10.4597867,12.5527733 L11.1732,3.94026667 C11.6526667,3.78296 12,3.33141333 12,2.8 C12,2.13832 11.46168,1.6 10.8,1.6 Z M4,1.2 C4,0.97944 4.17944,0.8 4.4,0.8 L7.6,0.8 C7.82056,0.8 8,0.97944 8,1.2 L8,1.6 L4,1.6 L4,1.2 Z M9.66250667,12.48656 C9.64536,12.6922133 9.47029333,12.8533333 9.26389333,12.8533333 L2.73610667,12.8533333 C2.52973333,12.8533333 2.35464,12.6922133 2.33754667,12.4867467 L1.63450667,4 L10.3654933,4 L9.66250667,12.48656 Z M10.8,3.2 L1.2,3.2 C0.97944,3.2 0.8,3.02056 0.8,2.8 C0.8,2.57944 0.97944,2.4 1.2,2.4 L10.8,2.4 C11.02056,2.4 11.2,2.57944 11.2,2.8 C11.2,3.02056 11.02056,3.2 10.8,3.2 Z" id="Shape"></path>
                        <path d="M4.39922667,11.62856 L3.99922667,5.17522667 C3.98554667,4.95472 3.79469333,4.78701333 3.57525333,4.80074667 C3.35474667,4.81442667 3.18709333,5.00424 3.20074667,5.22472 L3.60074667,11.67808 C3.61389333,11.89016 3.79,12.0533333 3.9996,12.0533333 C4.23125333,12.0533333 4.41344,11.85824 4.39922667,11.62856 Z" id="Shape"></path>
                        <path d="M6,4.8 C5.77909333,4.8 5.6,4.97909333 5.6,5.2 L5.6,11.6533333 C5.6,11.87424 5.77909333,12.0533333 6,12.0533333 C6.22090667,12.0533333 6.4,11.87424 6.4,11.6533333 L6.4,5.2 C6.4,4.97909333 6.22090667,4.8 6,4.8 Z" id="Shape"></path>
                        <path d="M8.42472,4.80077333 C8.20472,4.78709333 8.0144,4.95474667 8.00074667,5.17525333 L7.60074667,11.6285867 C7.58712,11.8490667 7.75477333,12.03888 7.97525333,12.05256 C8.19586667,12.0662133 8.38557333,11.89848 8.39922667,11.67808 L8.79922667,5.22474667 C8.81288,5.00424 8.64522667,4.81442667 8.42472,4.80077333 Z" id="Shape"></path>
                    </g>
                </g>
            </g>
        </g>
    </g>
</svg>