<?xml version="1.0" encoding="utf-8"?>
<!-- Generator: Adobe Illustrator 16.0.0, SVG Export Plug-In . SVG Version: 6.00 Build 0)  -->
<!DOCTYPE svg PUBLIC "-//W3C//DTD SVG 1.1//EN" "http://www.w3.org/Graphics/SVG/1.1/DTD/svg11.dtd">
<svg version="1.1" id="Layer_1" xmlns="http://www.w3.org/2000/svg" xmlns:xlink="http://www.w3.org/1999/xlink" x="0px" y="0px"
	 width="60.773px" height="62.07px" viewBox="0 0 60.773 62.07" enable-background="new 0 0 60.773 62.07" xml:space="preserve">
<path fill="none" stroke="#FFFFFF" stroke-width="1.5" stroke-miterlimit="10" d="M59.241,36.066l-3.732-6.809
	c-1.054-1.918-3.071-3.112-5.26-3.112h-7.807V14.427c0-0.781-0.635-1.417-1.417-1.417H2.422C1.635,13.009,1,13.646,1,14.427v31.505
	c0,0.783,0.636,1.423,1.422,1.423h4.221c0.612,2.048,2.514,3.544,4.761,3.544c2.245,0,4.145-1.499,4.758-3.544h27.88
	c0.609,2.048,2.511,3.544,4.757,3.544s4.146-1.499,4.759-3.544h4.445c0.777,0,1.413-0.64,1.413-1.423v-9.183
	C59.416,36.507,59.355,36.275,59.241,36.066"/>
<path fill="none" stroke="#FFFFFF" stroke-width="1.5" stroke-miterlimit="10" d="M3.834,15.842h35.772v28.673H16.157
	c-0.608-2.05-2.51-3.55-4.753-3.55c-2.251,0-4.147,1.502-4.761,3.55H3.834V15.842z"/>
<path fill="none" stroke="#FFFFFF" stroke-width="1.5" stroke-miterlimit="10" d="M56.584,44.517h-3.027
	c-0.611-2.05-2.513-3.547-4.759-3.547s-4.146,1.502-4.756,3.547h-1.6v-15.54h7.807c1.156,0,2.22,0.634,2.775,1.646l3.559,6.488
	L56.584,44.517L56.584,44.517z"/>
</svg>
