<?xml version="1.0" encoding="utf-8"?>
<!-- Generator: Adobe Illustrator 16.0.0, SVG Export Plug-In . SVG Version: 6.00 Build 0)  -->
<!DOCTYPE svg PUBLIC "-//W3C//DTD SVG 1.1//EN" "http://www.w3.org/Graphics/SVG/1.1/DTD/svg11.dtd">
<svg version="1.1" id="Layer_1" xmlns="http://www.w3.org/2000/svg" xmlns:xlink="http://www.w3.org/1999/xlink" x="0px" y="0px"
	 width="25.514px" height="25.585px" viewBox="0 0 25.514 25.585" enable-background="new 0 0 25.514 25.585" xml:space="preserve">
<path fill="#FFFFFF" d="M22.539,0.245H3.427c-1.643,0-2.975,1.332-2.975,2.975v19.112c0,1.643,1.332,2.975,2.975,2.975h10.394
	v-9.657h-3.225v-3.843h3.225V8.807c0-2.805,2.281-5.088,5.088-5.088h2.748v4.01h-2.748c-0.596,0-1.078,0.484-1.078,1.078v2.999
	h3.826l-0.602,3.843h-3.225v9.657h4.708c1.644,0,2.976-1.332,2.976-2.975V3.219C25.514,1.577,24.182,0.245,22.539,0.245"/>
</svg>
