<?xml version="1.0" encoding="utf-8"?>
<!-- Generator: Adobe Illustrator 16.0.0, SVG Export Plug-In . SVG Version: 6.00 Build 0)  -->
<!DOCTYPE svg PUBLIC "-//W3C//DTD SVG 1.1//EN" "http://www.w3.org/Graphics/SVG/1.1/DTD/svg11.dtd">
<svg version="1.1" id="Layer_1" xmlns="http://www.w3.org/2000/svg" xmlns:xlink="http://www.w3.org/1999/xlink" x="0px" y="0px"
	 width="23px" height="24px" viewBox="0 0 23 24" enable-background="new 0 0 23 24" xml:space="preserve">
<path fill="#FFFFFF" d="M16.845,20.755c-4.128,0-8.037-1.363-10.996-3.847c-2.959-2.469-4.591-5.73-4.591-9.18
	c0-0.819,0.426-1.603,1.163-2.147l2.363-1.883c0.366-0.29,0.84-0.453,1.346-0.453c0.646,0,1.249,0.27,1.613,0.717l2.405,2.824
	c0.237,0.28,0.365,0.606,0.365,0.941c0,0.463-0.238,0.912-0.658,1.222l-1.936,1.425c-0.11,0.091-0.329,0.321-0.329,0.61
	c-0.006,0.784,0.743,1.914,1.906,2.886c1.157,0.966,2.509,1.592,3.445,1.592h0.007c0.348,0,0.621-0.183,0.749-0.295l1.687-1.598
	c0.646-0.605,1.802-0.718,2.587-0.249l3.38,2.021c0.529,0.299,0.853,0.804,0.853,1.342c0,0.418-0.188,0.82-0.542,1.126l-2.265,1.989
	C18.764,20.399,17.832,20.755,16.845,20.755z M6.129,4.064c-0.25,0-0.487,0.081-0.669,0.224L3.079,6.181
	C2.537,6.583,2.232,7.144,2.232,7.728c0,3.232,1.528,6.29,4.304,8.605c2.776,2.326,6.442,3.608,10.308,3.608
	c0.701,0,1.37-0.255,1.833-0.698l2.277-1.998c0.177-0.153,0.268-0.353,0.268-0.562c0-0.27-0.164-0.523-0.432-0.676l-3.386-2.021
	c-0.39-0.233-0.968-0.177-1.29,0.128l-1.706,1.613c-0.432,0.361-0.938,0.549-1.454,0.549c-0.007,0-0.007,0-0.014,0
	c-1.199,0-2.782-0.701-4.134-1.831C7.45,13.31,6.61,11.982,6.616,10.979c0-0.432,0.231-0.859,0.639-1.201L9.21,8.334
	c0.213-0.158,0.329-0.377,0.329-0.611c0-0.167-0.061-0.33-0.183-0.467L6.939,4.431C6.756,4.197,6.452,4.064,6.129,4.064z"/>
</svg>
