<?xml version="1.0" encoding="utf-8"?>
<!-- Generator: Adobe Illustrator 16.0.0, SVG Export Plug-In . SVG Version: 6.00 Build 0)  -->
<!DOCTYPE svg PUBLIC "-//W3C//DTD SVG 1.1//EN" "http://www.w3.org/Graphics/SVG/1.1/DTD/svg11.dtd">
<svg version="1.1" id="Layer_1" xmlns="http://www.w3.org/2000/svg" xmlns:xlink="http://www.w3.org/1999/xlink" x="0px" y="0px"
	 width="23px" height="24px" viewBox="0 0 23 24" enable-background="new 0 0 23 24" xml:space="preserve">
<g>
	<g>
		<g>
			<path fill="#FFFFFF" d="M22.859,12.141l-3.833-3.833c-0.09-0.09-0.212-0.14-0.339-0.14h-3.354V6.729
				c0-0.265-0.214-0.479-0.479-0.479H4.792V3.854c0-0.214-0.142-0.403-0.349-0.461C4.234,3.334,4.017,3.42,3.904,3.603L0.071,9.832
				c-0.091,0.148-0.094,0.334-0.01,0.485c0.085,0.151,0.245,0.245,0.418,0.245h2.396v3.834c0,0.214,0.142,0.402,0.349,0.461
				c0.043,0.012,0.087,0.018,0.13,0.018c0.164,0,0.319-0.084,0.408-0.228l0.071-0.116v2.261c0,1.058,0.86,1.917,1.917,1.917h0.048
				c0.223,1.092,1.19,1.916,2.347,1.916c1.158,0,2.125-0.824,2.348-1.916h5.847c0.223,1.092,1.19,1.916,2.348,1.916
				s2.125-0.824,2.348-1.916h1.486c0.264,0,0.479-0.215,0.479-0.479v-5.75C23,12.352,22.949,12.23,22.859,12.141z M3.833,12.703
				v-2.62c0-0.265-0.214-0.479-0.479-0.479H1.336l2.497-4.057v2.62c0,0.265,0.214,0.479,0.479,0.479H6.33L3.833,12.703z
				 M8.146,19.667c-0.792,0-1.438-0.646-1.438-1.438c0-0.793,0.645-1.438,1.438-1.438c0.793,0,1.438,0.645,1.438,1.438
				C9.583,19.021,8.938,19.667,8.146,19.667z M14.375,17.75h-3.882c-0.223-1.092-1.19-1.916-2.348-1.916
				c-1.157,0-2.125,0.824-2.347,1.916H5.75c-0.529,0-0.958-0.43-0.958-0.958v-3.817l2.804-4.557c0.09-0.148,0.094-0.333,0.01-0.485
				C7.521,7.782,7.36,7.688,7.188,7.688H4.792V7.208h9.583V17.75L14.375,17.75z M18.688,19.667c-0.793,0-1.438-0.646-1.438-1.438
				c0-0.793,0.645-1.438,1.438-1.438s1.438,0.645,1.438,1.438C20.125,19.021,19.48,19.667,18.688,19.667z M22.041,17.75h-1.006
				c-0.223-1.092-1.19-1.916-2.348-1.916s-2.125,0.824-2.348,1.916h-1.006V9.125h3.155l3.552,3.553V17.75L22.041,17.75z"/>
			<path fill="#FFFFFF" d="M17.25,10.563c0-0.265-0.215-0.479-0.479-0.479s-0.479,0.214-0.479,0.479v2.875
				c0,0.266,0.215,0.479,0.479,0.479h3.833c0.266,0,0.48-0.214,0.48-0.479c0-0.265-0.215-0.479-0.48-0.479H17.25V10.563
				L17.25,10.563z"/>
		</g>
	</g>
</g>
</svg>
