<?xml version="1.0" encoding="utf-8"?>
<!-- Generator: Adobe Illustrator 16.0.0, SVG Export Plug-In . SVG Version: 6.00 Build 0)  -->
<!DOCTYPE svg PUBLIC "-//W3C//DTD SVG 1.1//EN" "http://www.w3.org/Graphics/SVG/1.1/DTD/svg11.dtd">
<svg version="1.1" id="Layer_1" xmlns="http://www.w3.org/2000/svg" xmlns:xlink="http://www.w3.org/1999/xlink" x="0px" y="0px"
	 width="23px" height="24px" viewBox="0 0 23 24" enable-background="new 0 0 23 24" xml:space="preserve">
<g>
	<g>
		<g>
			<path fill="#FFFFFF" d="M22.859,10.224l-4.791-4.792c-0.09-0.09-0.212-0.141-0.34-0.141h-4.313V3.854
				c0-0.265-0.214-0.479-0.479-0.479H1.917C0.859,3.375,0,4.234,0,5.292v11.98c0,0.792,0.645,1.438,1.438,1.438h1.135
				c0.397,1.112,1.451,1.916,2.699,1.916c1.248,0,2.301-0.804,2.698-1.916h7.062c0.396,1.112,1.45,1.916,2.697,1.916
				c1.248,0,2.303-0.804,2.699-1.916h0.656c1.057,0,1.916-0.86,1.916-1.918v-6.229C23,10.435,22.949,10.313,22.859,10.224z
				 M5.271,19.666c-1.057,0-1.917-0.859-1.917-1.916s0.86-1.916,1.917-1.916s1.917,0.859,1.917,1.916S6.328,19.666,5.271,19.666z
				 M12.459,5.771V17.75H8.146c0-1.586-1.29-2.875-2.875-2.875s-2.875,1.289-2.875,2.875H1.438c-0.264,0-0.479-0.215-0.479-0.479
				V5.292c0-0.528,0.43-0.958,0.958-0.958h10.542V5.771z M17.729,19.666c-1.057,0-1.916-0.859-1.916-1.916s0.859-1.916,1.916-1.916
				c1.058,0,1.918,0.859,1.918,1.916S18.786,19.666,17.729,19.666z M22.041,16.791c0,0.529-0.43,0.959-0.957,0.959h-0.48
				c0-1.586-1.289-2.875-2.875-2.875c-1.585,0-2.875,1.289-2.875,2.875h-1.438V6.25h4.115l4.51,4.511V16.791z"/>
			<path fill="#FFFFFF" d="M16.291,7.688c0-0.265-0.214-0.479-0.479-0.479s-0.479,0.214-0.479,0.479v3.833
				c0,0.265,0.214,0.479,0.479,0.479h4.791c0.266,0,0.48-0.214,0.48-0.479c0-0.265-0.215-0.479-0.48-0.479h-4.313V7.688z"/>
		</g>
	</g>
</g>
</svg>
