<?xml version="1.0" encoding="utf-8"?>
<!-- Generator: Adobe Illustrator 16.0.0, SVG Export Plug-In . SVG Version: 6.00 Build 0)  -->
<!DOCTYPE svg PUBLIC "-//W3C//DTD SVG 1.1//EN" "http://www.w3.org/Graphics/SVG/1.1/DTD/svg11.dtd">
<svg version="1.1" id="Layer_1" xmlns="http://www.w3.org/2000/svg" xmlns:xlink="http://www.w3.org/1999/xlink" x="0px" y="0px"
	 width="23px" height="24px" viewBox="0 0 23 24" enable-background="new 0 0 23 24" xml:space="preserve">
<g>
	<g>
		<g>
			<path fill="#FFFFFF" d="M20.287,8.403c0-0.077-0.019-0.154-0.063-0.222l-3.196-4.794c-0.075-0.111-0.198-0.178-0.333-0.178H6.306
				c-0.134,0-0.259,0.067-0.333,0.178L2.776,8.182C2.731,8.249,2.714,8.326,2.714,8.403H2.709v2.398c0,0.221,0.179,0.4,0.4,0.4
				h0.399v7.992c0,0.881,0.717,1.598,1.599,1.598h12.787c0.881,0,1.599-0.717,1.599-1.598v-7.992h0.399
				c0.22,0,0.399-0.179,0.399-0.4V8.403H20.287L20.287,8.403z M6.519,4.008h9.961l2.664,3.997H3.855L6.519,4.008z M18.693,19.193
				c0,0.439-0.359,0.799-0.8,0.799H5.106c-0.44,0-0.799-0.359-0.799-0.799v-7.992h14.386V19.193z M19.492,10.401H3.508V8.803h15.984
				V10.401z"/>
			<path fill="#FFFFFF" d="M8.303,15.197h6.394c0.881,0,1.599-0.717,1.599-1.6c0-0.881-0.718-1.598-1.599-1.598H8.303
				c-0.882,0-1.599,0.717-1.599,1.598C6.705,14.48,7.421,15.197,8.303,15.197z M8.303,12.799h6.394c0.439,0,0.798,0.359,0.798,0.799
				c0,0.441-0.358,0.8-0.798,0.8H8.303c-0.44,0-0.799-0.358-0.799-0.8C7.504,13.158,7.863,12.799,8.303,12.799z"/>
		</g>
	</g>
</g>
</svg>
