<?xml version="1.0" encoding="utf-8"?>
<!-- Generator: Adobe Illustrator 16.0.0, SVG Export Plug-In . SVG Version: 6.00 Build 0)  -->
<!DOCTYPE svg PUBLIC "-//W3C//DTD SVG 1.1//EN" "http://www.w3.org/Graphics/SVG/1.1/DTD/svg11.dtd">
<svg version="1.1" id="Layer_1" xmlns="http://www.w3.org/2000/svg" xmlns:xlink="http://www.w3.org/1999/xlink" x="0px" y="0px"
	 width="23px" height="24px" viewBox="0 0 23 24" enable-background="new 0 0 23 24" xml:space="preserve">
<path fill="#FFFFFF" d="M11.765,4.021c-3.572,0-6.477,2.92-6.477,6.51c0,1.413,0.446,2.756,1.292,3.883l5.186,6.63l5.178-6.619
	l0.007-0.011c0.847-1.127,1.292-2.47,1.292-3.883C18.242,6.941,15.337,4.021,11.765,4.021z M16.156,13.813l-4.391,5.614
	l-4.391-5.614c-0.712-0.953-1.09-2.088-1.09-3.281c0-3.041,2.458-5.515,5.481-5.515c3.021,0,5.481,2.474,5.481,5.515
	C17.246,11.725,16.87,12.859,16.156,13.813z"/>
<path fill="#FFFFFF" d="M11.765,7.044c-1.924,0-3.488,1.565-3.488,3.489c0,1.924,1.563,3.488,3.488,3.488
	c1.922,0,3.487-1.563,3.487-3.488C15.251,8.609,13.688,7.044,11.765,7.044z M11.765,13.022c-1.374,0-2.491-1.118-2.491-2.491
	s1.118-2.491,2.491-2.491c1.374,0,2.492,1.117,2.492,2.491C14.257,11.905,13.139,13.022,11.765,13.022z"/>
</svg>
