<?xml version="1.0" encoding="utf-8"?>
<!-- Generator: Adobe Illustrator 16.0.0, SVG Export Plug-In . SVG Version: 6.00 Build 0)  -->
<!DOCTYPE svg PUBLIC "-//W3C//DTD SVG 1.1//EN" "http://www.w3.org/Graphics/SVG/1.1/DTD/svg11.dtd">
<svg version="1.1" id="Capa_1" xmlns="http://www.w3.org/2000/svg" xmlns:xlink="http://www.w3.org/1999/xlink" x="0px" y="0px"
	 width="23px" height="24px" viewBox="0 0 23 24" enable-background="new 0 0 23 24" xml:space="preserve">
<g>
	<g>
		<g>
			<path fill="#FFFFFF" d="M11.495,6.853c0.285,0,0.514-0.23,0.514-0.515V3.764c0-0.285-0.23-0.514-0.514-0.514
				c-0.284,0-0.515,0.23-0.515,0.514v2.574C10.979,6.623,11.21,6.853,11.495,6.853z"/>
			<path fill="#FFFFFF" d="M19.31,5.855c-0.015-0.011-0.028-0.022-0.044-0.032c-0.227-0.17-0.55-0.125-0.721,0.103l-1.544,2.06
				c-0.171,0.227-0.124,0.55,0.104,0.72c0.094,0.058,0.199,0.093,0.309,0.103c0.16-0.004,0.312-0.079,0.411-0.207l1.544-2.059
				C19.542,6.337,19.516,6.028,19.31,5.855z"/>
			<path fill="#FFFFFF" d="M5.884,8.705c0.227-0.17,0.273-0.493,0.103-0.72L4.443,5.927C4.272,5.699,3.95,5.653,3.722,5.823
				C3.495,5.994,3.449,6.316,3.62,6.544l1.544,2.059c0.1,0.127,0.251,0.202,0.412,0.206C5.685,8.798,5.791,8.763,5.884,8.705z"/>
			<path fill="#FFFFFF" d="M17.361,13.003c-0.386-1.801-1.697-2.985-3.371-2.985c-0.898,0.029-1.767,0.325-2.496,0.849
				c-0.735-0.532-1.615-0.829-2.523-0.849c-1.672,0-2.984,1.158-3.345,2.985c-0.489,2.521,1.029,5.867,5.533,7.695
				c0.218,0.067,0.452,0.067,0.669,0c4.478-1.802,5.995-5.147,5.533-7.67V13.003L17.361,13.003z M11.495,19.72
				c-3.912-1.596-5.25-4.426-4.838-6.537c0.257-1.312,1.132-2.135,2.316-2.135c0.81,0.036,1.586,0.334,2.213,0.849
				c0.186,0.129,0.432,0.129,0.618,0c0.772-0.541,1.493-0.849,2.187-0.849c1.185,0,2.085,0.849,2.367,2.162
				C16.744,15.319,15.406,18.125,11.495,19.72z"/>
		</g>
	</g>
</g>
</svg>
