<?xml version="1.0" encoding="utf-8"?>
<!-- Generator: Adobe Illustrator 16.0.0, SVG Export Plug-In . SVG Version: 6.00 Build 0)  -->
<!DOCTYPE svg PUBLIC "-//W3C//DTD SVG 1.1//EN" "http://www.w3.org/Graphics/SVG/1.1/DTD/svg11.dtd">
<svg version="1.1" id="Layer_1" xmlns="http://www.w3.org/2000/svg" xmlns:xlink="http://www.w3.org/1999/xlink" x="0px" y="0px"
	 width="23px" height="24px" viewBox="0 0 23 24" enable-background="new 0 0 23 24" xml:space="preserve">
<g>
	<g>
		<g>
			<path fill="#FFFFFF" d="M21.521,8.631l-9.823-5.125c-0.124-0.064-0.271-0.064-0.396,0L1.48,8.631
				c-0.175,0.091-0.264,0.29-0.218,0.48C1.309,9.303,1.48,9.438,1.677,9.438h0.427v10.677c0,0.236,0.191,0.427,0.427,0.427h2.563
				c0.236,0,0.427-0.19,0.427-0.427v-9.823h11.958v9.823c0,0.236,0.19,0.427,0.427,0.427h2.563c0.236,0,0.427-0.19,0.427-0.427
				V9.438h0.428c0.197,0,0.367-0.134,0.415-0.326C21.785,8.921,21.694,8.723,21.521,8.631z M20.041,9.01v10.677h-1.708V9.864
				c0-0.236-0.19-0.427-0.427-0.427H5.094c-0.236,0-0.427,0.191-0.427,0.427v9.823H2.958V9.01c0-0.06-0.013-0.117-0.035-0.168
				L11.5,4.367l8.576,4.475C20.055,8.894,20.041,8.95,20.041,9.01z"/>
			<path fill="#FFFFFF" d="M16.197,14.563h-5.124c-0.236,0-0.428,0.191-0.428,0.427v0.427H6.802c-0.236,0-0.427,0.191-0.427,0.428
				v4.271c0,0.236,0.191,0.427,0.427,0.427h9.395c0.236,0,0.428-0.19,0.428-0.427v-5.125C16.625,14.754,16.434,14.563,16.197,14.563
				z M10.646,19.688H7.229v-3.417h1.281v0.854c0,0.236,0.191,0.427,0.427,0.427c0.236,0,0.427-0.19,0.427-0.427v-0.854h1.281V19.688
				L10.646,19.688z M15.771,19.688H11.5v-3.844v-0.428h1.708v1.281c0,0.236,0.191,0.428,0.428,0.428
				c0.235,0,0.427-0.191,0.427-0.428v-1.281h1.708V19.688L15.771,19.688z"/>
		</g>
	</g>
</g>
</svg>
