<?xml version="1.0" encoding="utf-8"?>
<!-- Generator: Adobe Illustrator 16.0.0, SVG Export Plug-In . SVG Version: 6.00 Build 0)  -->
<!DOCTYPE svg PUBLIC "-//W3C//DTD SVG 1.1//EN" "http://www.w3.org/Graphics/SVG/1.1/DTD/svg11.dtd">
<svg version="1.1" id="Layer_1" xmlns="http://www.w3.org/2000/svg" xmlns:xlink="http://www.w3.org/1999/xlink" x="0px" y="0px"
	 width="39.179px" height="44.6px" viewBox="9.731 0.046 39.179 44.6" enable-background="new 9.731 0.046 39.179 44.6"
	 xml:space="preserve">
<g>
	<g>
		<g>
			<defs>
				<rect id="SVGID_1_" x="9.731" y="0.046" width="39.179" height="44.6"/>
			</defs>
			<clipPath id="SVGID_2_">
				<use xlink:href="#SVGID_1_"  overflow="visible"/>
			</clipPath>
			<path clip-path="url(#SVGID_2_)" fill="#EF4538" d="M33.319,38.871h-8.113c-0.813,0-1.476-0.662-1.476-1.479
				c0-0.813,0.662-1.476,1.476-1.476h8.113c0.813,0,1.477,0.662,1.477,1.476C34.796,38.208,34.133,38.871,33.319,38.871
				 M25.207,36.593c-0.44,0-0.8,0.36-0.8,0.8c0,0.441,0.358,0.801,0.8,0.801h8.113c0.44,0,0.801-0.358,0.801-0.801
				c0-0.438-0.358-0.8-0.801-0.8H25.207z"/>
		</g>
	</g>
	<g>
		<g>
			<defs>
				<rect id="SVGID_3_" x="9.731" y="0.046" width="39.179" height="44.6"/>
			</defs>
			<clipPath id="SVGID_4_">
				<use xlink:href="#SVGID_3_"  overflow="visible"/>
			</clipPath>
			<path clip-path="url(#SVGID_4_)" fill="#EF4538" d="M29.266,44.648c-1.134,0-2.093-0.756-2.373-1.835
				c-1.457-0.213-2.563-1.462-2.563-2.95v-0.339h9.864v0.339c0,1.486-1.104,2.735-2.556,2.95
				C31.358,43.89,30.4,44.648,29.266,44.648 M25.031,40.199c0.158,1.064,1.051,1.901,2.162,1.966l0.272,0.016l0.041,0.271
				c0.134,0.881,0.873,1.521,1.759,1.521s1.625-0.641,1.759-1.521l0.041-0.271l0.273-0.016c1.108-0.063,1.999-0.9,2.157-1.966
				H25.031z"/>
		</g>
	</g>
	<g>
		<g>
			<defs>
				<rect id="SVGID_5_" x="9.731" y="0.046" width="39.179" height="44.6"/>
			</defs>
			<clipPath id="SVGID_6_">
				<use xlink:href="#SVGID_5_"  overflow="visible"/>
			</clipPath>
			<path clip-path="url(#SVGID_6_)" fill="#EF4538" d="M34.597,35.242H23.871v-3.888c-1.031-1.744-2.236-3.501-3.486-5.088
				c-1.581-2.008-2.418-4.417-2.418-6.969C17.966,13.068,23.034,8,29.265,8c6.229,0,11.296,5.068,11.296,11.298
				c0,2.554-0.836,4.963-2.419,6.971c-1.127,1.431-2.449,3.362-3.546,5.185L34.597,35.242L34.597,35.242z M24.546,34.566h9.376
				v-3.301l0.049-0.079c1.12-1.867,2.481-3.862,3.641-5.335c1.488-1.885,2.276-4.15,2.276-6.552c0-5.858-4.766-10.623-10.622-10.623
				c-5.858,0-10.623,4.765-10.623,10.623c0,2.399,0.786,4.665,2.271,6.55c1.288,1.633,2.527,3.446,3.584,5.241l0.047,0.079
				L24.546,34.566L24.546,34.566z"/>
		</g>
	</g>
	<g>
		<g>
			<defs>
				<rect id="SVGID_7_" x="9.731" y="0.046" width="39.179" height="44.6"/>
			</defs>
			<clipPath id="SVGID_8_">
				<use xlink:href="#SVGID_7_"  overflow="visible"/>
			</clipPath>
			<rect x="27.424" y="42.178" clip-path="url(#SVGID_8_)" fill="#EF4538" width="3.799" height="0.677"/>
		</g>
	</g>
	<g>
		<g>
			<defs>
				<rect id="SVGID_9_" x="9.731" y="0.046" width="39.179" height="44.6"/>
			</defs>
			<clipPath id="SVGID_10_">
				<use xlink:href="#SVGID_9_"  overflow="visible"/>
			</clipPath>
			<path clip-path="url(#SVGID_10_)" fill="#EF4538" d="M29.686,5.645c-0.16,0-0.289-0.129-0.289-0.29v-5.02
				c0-0.159,0.129-0.289,0.289-0.289c0.161,0,0.29,0.13,0.29,0.289v5.02C29.976,5.516,29.846,5.645,29.686,5.645"/>
		</g>
	</g>
	<g>
		<g>
			<defs>
				<rect id="SVGID_11_" x="9.731" y="0.046" width="39.179" height="44.6"/>
			</defs>
			<clipPath id="SVGID_12_">
				<use xlink:href="#SVGID_11_"  overflow="visible"/>
			</clipPath>
			<path clip-path="url(#SVGID_12_)" fill="#EF4538" d="M37.378,7.524c-0.051,0-0.103-0.013-0.148-0.042
				c-0.138-0.083-0.182-0.261-0.099-0.397l2.604-4.292c0.083-0.138,0.26-0.182,0.396-0.098c0.138,0.083,0.182,0.262,0.098,0.397
				l-2.602,4.292C37.571,7.475,37.476,7.524,37.378,7.524"/>
		</g>
	</g>
	<g>
		<g>
			<defs>
				<rect id="SVGID_13_" x="9.731" y="0.046" width="39.179" height="44.6"/>
			</defs>
			<clipPath id="SVGID_14_">
				<use xlink:href="#SVGID_13_"  overflow="visible"/>
			</clipPath>
			<path clip-path="url(#SVGID_14_)" fill="#EF4538" d="M42.157,13.583c-0.104,0-0.205-0.058-0.256-0.155
				c-0.075-0.142-0.021-0.317,0.122-0.391l4.449-2.323c0.142-0.074,0.316-0.019,0.391,0.123s0.019,0.316-0.122,0.392l-4.449,2.321
				C42.248,13.573,42.201,13.583,42.157,13.583"/>
		</g>
	</g>
	<g>
		<g>
			<defs>
				<rect id="SVGID_15_" x="9.731" y="0.046" width="39.179" height="44.6"/>
			</defs>
			<clipPath id="SVGID_16_">
				<use xlink:href="#SVGID_15_"  overflow="visible"/>
			</clipPath>
			<path clip-path="url(#SVGID_16_)" fill="#EF4538" d="M48.613,20.736c-0.006,0-0.014,0-0.021-0.001l-5.01-0.319
				c-0.159-0.011-0.279-0.148-0.271-0.308c0.009-0.158,0.147-0.279,0.308-0.271l5.009,0.32c0.161,0.011,0.28,0.147,0.272,0.309
				C48.893,20.618,48.763,20.736,48.613,20.736"/>
		</g>
	</g>
	<g>
		<g>
			<defs>
				<rect id="SVGID_17_" x="9.731" y="0.046" width="39.179" height="44.6"/>
			</defs>
			<clipPath id="SVGID_18_">
				<use xlink:href="#SVGID_17_"  overflow="visible"/>
			</clipPath>
			<path clip-path="url(#SVGID_18_)" fill="#EF4538" d="M45.416,30.844c-0.056,0-0.114-0.019-0.164-0.052l-4.119-2.871
				c-0.13-0.09-0.162-0.271-0.071-0.402s0.271-0.162,0.402-0.073l4.119,2.871c0.13,0.093,0.164,0.272,0.072,0.401
				C45.597,30.8,45.509,30.844,45.416,30.844"/>
		</g>
	</g>
	<g>
		<g>
			<defs>
				<rect id="SVGID_19_" x="9.731" y="0.046" width="39.179" height="44.6"/>
			</defs>
			<clipPath id="SVGID_20_">
				<use xlink:href="#SVGID_19_"  overflow="visible"/>
			</clipPath>
			<path clip-path="url(#SVGID_20_)" fill="#EF4538" d="M21.266,7.524c-0.1,0-0.194-0.049-0.248-0.14l-2.603-4.292
				c-0.083-0.137-0.039-0.314,0.098-0.397c0.137-0.084,0.314-0.04,0.397,0.098l2.602,4.292c0.084,0.137,0.039,0.314-0.098,0.397
				C21.366,7.512,21.315,7.524,21.266,7.524"/>
		</g>
	</g>
	<g>
		<g>
			<defs>
				<rect id="SVGID_21_" x="9.731" y="0.046" width="39.179" height="44.6"/>
			</defs>
			<clipPath id="SVGID_22_">
				<use xlink:href="#SVGID_21_"  overflow="visible"/>
			</clipPath>
			<path clip-path="url(#SVGID_22_)" fill="#EF4538" d="M16.486,13.583c-0.046,0-0.091-0.01-0.134-0.033l-4.449-2.321
				c-0.144-0.075-0.197-0.25-0.123-0.392c0.074-0.143,0.249-0.196,0.39-0.122l4.449,2.322c0.142,0.073,0.198,0.249,0.123,0.391
				C16.689,13.526,16.591,13.583,16.486,13.583"/>
		</g>
	</g>
	<g>
		<g>
			<defs>
				<rect id="SVGID_23_" x="9.731" y="0.046" width="39.179" height="44.6"/>
			</defs>
			<clipPath id="SVGID_24_">
				<use xlink:href="#SVGID_23_"  overflow="visible"/>
			</clipPath>
			<path clip-path="url(#SVGID_24_)" fill="#EF4538" d="M10.03,20.736c-0.151,0-0.279-0.117-0.289-0.271
				c-0.009-0.161,0.111-0.297,0.27-0.309l5.011-0.319c0.16-0.01,0.297,0.111,0.307,0.271c0.01,0.16-0.111,0.297-0.271,0.308
				l-5.011,0.319C10.042,20.736,10.036,20.736,10.03,20.736"/>
		</g>
	</g>
	<g>
		<g>
			<defs>
				<rect id="SVGID_25_" x="9.731" y="0.046" width="39.179" height="44.6"/>
			</defs>
			<clipPath id="SVGID_26_">
				<use xlink:href="#SVGID_25_"  overflow="visible"/>
			</clipPath>
			<path clip-path="url(#SVGID_26_)" fill="#EF4538" d="M13.225,30.844c-0.092,0-0.182-0.044-0.238-0.126
				c-0.092-0.129-0.059-0.31,0.073-0.401l4.118-2.871c0.13-0.089,0.31-0.058,0.402,0.073c0.09,0.132,0.06,0.312-0.072,0.402
				l-4.118,2.871C13.34,30.826,13.282,30.844,13.225,30.844"/>
		</g>
	</g>
</g>
</svg>
