<?xml version="1.0" encoding="utf-8"?>
<!-- Generator: Adobe Illustrator 16.0.0, SVG Export Plug-In . SVG Version: 6.00 Build 0)  -->
<!DOCTYPE svg PUBLIC "-//W3C//DTD SVG 1.1//EN" "http://www.w3.org/Graphics/SVG/1.1/DTD/svg11.dtd">
<svg version="1.1" id="Layer_1" xmlns="http://www.w3.org/2000/svg" xmlns:xlink="http://www.w3.org/1999/xlink" x="0px" y="0px"
	 width="25.514px" height="25.585px" viewBox="0 0 25.514 25.585" enable-background="new 0 0 25.514 25.585" xml:space="preserve">
<path fill="#FFFFFF" d="M25.387,23.843c0,0.872-0.706,1.579-1.579,1.579H1.707c-0.872,0-1.58-0.707-1.58-1.579V1.741
	c0-0.872,0.708-1.579,1.58-1.579h22.101c0.873,0,1.579,0.707,1.579,1.579V23.843L25.387,23.843z"/>
<rect x="4.287" y="10.148" fill="#010101" width="3.946" height="11.84"/>
<circle fill="#010101" cx="6.26" cy="6.201" r="2.368"/>
<path fill="#010101" d="M17.706,10.148c-2.179,0-3.946,0.79-3.946,2.762v-2.762H9.812v11.84h3.948v-6.314
	c0-0.655,0.394-2.764,1.972-2.764c1.09,0,1.975,0.528,1.975,1.185v7.894h3.947v-7.894C21.654,11.915,19.886,10.148,17.706,10.148z"
	/>
</svg>
