<?xml version="1.0" encoding="utf-8"?>
<!-- Generator: Adobe Illustrator 16.0.0, SVG Export Plug-In . SVG Version: 6.00 Build 0)  -->
<!DOCTYPE svg PUBLIC "-//W3C//DTD SVG 1.1//EN" "http://www.w3.org/Graphics/SVG/1.1/DTD/svg11.dtd">
<svg version="1.1" id="Layer_1" xmlns="http://www.w3.org/2000/svg" xmlns:xlink="http://www.w3.org/1999/xlink" x="0px" y="0px"
	 width="32.561px" height="32.389px" viewBox="0 0 32.561 32.389" enable-background="new 0 0 32.561 32.389" xml:space="preserve">
<circle fill="none" stroke="#010101" cx="16.275" cy="16.243" r="15.658"/>
<g>
	<defs>
		<rect id="SVGID_1_" x="6.11" y="8.023" width="20.33" height="18.438"/>
	</defs>
	<clipPath id="SVGID_2_">
		<use xlink:href="#SVGID_1_"  overflow="visible"/>
	</clipPath>
	<path clip-path="url(#SVGID_2_)" fill="#010101" d="M6.862,9.527h2.153l3.069,11.097c0.088,0.325,0.388,0.551,0.727,0.551h9.432
		c0.3,0,0.563-0.175,0.688-0.45l3.433-7.891c0.1-0.238,0.074-0.501-0.063-0.714c-0.138-0.213-0.376-0.338-0.626-0.338H15.253
		c-0.413,0-0.752,0.338-0.752,0.751s0.339,0.752,0.752,0.752h9.269l-2.78,6.387h-8.367L10.305,8.575
		C10.218,8.25,9.917,8.024,9.58,8.024H6.862c-0.413,0-0.752,0.338-0.752,0.752C6.11,9.189,6.449,9.527,6.862,9.527"/>
	<path clip-path="url(#SVGID_2_)" fill="#010101" d="M12.097,26.461c0.938,0,1.703-0.764,1.703-1.703s-0.765-1.704-1.703-1.704
		c-0.939,0-1.703,0.765-1.703,1.704S11.158,26.461,12.097,26.461"/>
	<path clip-path="url(#SVGID_2_)" fill="#010101" d="M22.744,26.461h0.125c0.45-0.038,0.864-0.238,1.165-0.59
		c0.301-0.338,0.438-0.775,0.412-1.239c-0.062-0.926-0.875-1.64-1.815-1.578c-0.938,0.063-1.64,0.89-1.578,1.815
		C21.116,25.76,21.854,26.461,22.744,26.461"/>
</g>
</svg>
