<?xml version="1.0" encoding="utf-8"?>
<!-- Generator: Adobe Illustrator 16.0.0, SVG Export Plug-In . SVG Version: 6.00 Build 0)  -->
<!DOCTYPE svg PUBLIC "-//W3C//DTD SVG 1.1//EN" "http://www.w3.org/Graphics/SVG/1.1/DTD/svg11.dtd">
<svg version="1.1" id="Layer_1" xmlns="http://www.w3.org/2000/svg" xmlns:xlink="http://www.w3.org/1999/xlink" x="0px" y="0px"
	 width="59.343px" height="44.693px" viewBox="5.876 2.886 59.343 44.693" enable-background="new 5.876 2.886 59.343 44.693"
	 xml:space="preserve">
<g>
	<g>
		<path fill="#F75252" d="M63.087,25.109l2.099-8.043c0.088-0.351,0-0.789-0.261-1.138c-0.263-0.35-0.61-0.524-1.051-0.524h-5.156
			c-0.438,0-0.877,0.35-0.877,0.874c0,0.525,0.351,0.875,0.877,0.875h4.547l-2.014,7.609c-0.086,0.173-0.086,0.434,0,0.698
			l2.014,7.605H58.63c-0.438,0-0.877,0.35-0.877,0.874c0,0.525,0.349,0.874,0.877,0.874h5.244c0.44,0,0.788-0.174,1.051-0.524
			c0.261-0.35,0.349-0.698,0.261-1.137L63.087,25.109z"/>
	</g>
</g>
<g>
	<g>
		<path fill="#F75252" d="M12.292,32.978H7.832l2.012-7.605c0.087-0.177,0.087-0.438,0-0.7l-2.012-7.605h4.459
			c0.437,0,0.875-0.351,0.875-0.875c0-0.525-0.351-0.874-0.875-0.874H7.221c-0.437,0-0.787,0.175-1.049,0.524
			c-0.263,0.35-0.35,0.7-0.263,1.136l2.099,8.044l-2.099,8.044c-0.087,0.35,0,0.785,0.263,1.136
			c0.262,0.349,0.612,0.524,1.049,0.524h5.071c0.437,0,0.875-0.351,0.875-0.875S12.815,32.978,12.292,32.978z"/>
	</g>
</g>
<g>
	<g>
		<path fill="#F75252" d="M52.773,22.748C52.247,18.64,50.147,14.793,47,12.082c-3.147-2.798-7.257-4.372-11.453-4.372
			c-4.197,0-8.306,1.574-11.454,4.372c-3.147,2.797-5.157,6.559-5.682,10.667c-0.087,0.438,0.261,0.874,0.786,0.963
			c0.438,0.085,0.874-0.264,0.962-0.788c0.524-3.672,2.36-7.169,5.158-9.618c2.885-2.534,6.557-3.934,10.317-3.934
			c3.847,0,7.433,1.399,10.316,3.934c2.798,2.449,4.634,5.946,5.156,9.618c0.088,0.438,0.44,0.788,0.876,0.788h0.089
			C52.508,23.711,52.856,23.273,52.773,22.748z"/>
	</g>
</g>
<g>
	<g>
		<path fill="#F75252" d="M52.073,26.246c-0.438-0.088-0.877,0.261-0.965,0.786c-0.961,7.781-7.605,13.639-15.473,13.639
			c-7.869,0-14.514-5.857-15.476-13.726c-0.088-0.438-0.524-0.787-0.962-0.787c-0.437,0.088-0.786,0.523-0.786,0.962
			c1.049,8.654,8.48,15.213,17.224,15.213c8.744,0,16.172-6.559,17.221-15.213C52.856,26.77,52.508,26.331,52.073,26.246z"/>
	</g>
</g>
<g>
	<g>
		<path fill="#F75252" d="M47.7,20.65c0-1.136-0.961-2.099-2.099-2.099h-7.606l0.7-1.748c0.611-1.311,0.438-2.885-0.61-4.023
			c-0.438-0.523-1.138-0.699-1.75-0.699c-0.699,0.088-1.224,0.438-1.574,0.962l0,0l-3.759,6.207c-0.263-0.35-0.7-0.525-1.137-0.525
			h-3.672l0,0c-0.438,0-0.787,0.175-1.049,0.439c-0.262,0.261-0.437,0.699-0.437,1.048v11.279c0,0.784,0.7,1.485,1.486,1.485h3.672
			c0.7,0,1.225-0.438,1.399-1.05l2.972,1.05c1.4,0.438,2.8,0.699,4.198,0.699h5.246c1.137,0,2.1-0.962,2.1-2.1v-0.785
			c0-0.264-0.089-0.524-0.178-0.789c0.614-0.349,0.965-1.048,0.965-1.748v-0.786c0-0.264-0.088-0.613-0.176-0.874
			c0.524-0.349,0.787-0.961,0.787-1.66v-0.787c0-0.351-0.089-0.7-0.263-0.961c0.436-0.35,0.7-0.963,0.7-1.574L47.7,20.65L47.7,20.65
			z M29.602,31.228h-3.147V20.563h3.147V31.228z M45.601,21.874h-0.433h-4.287c-0.438,0-0.876,0.35-0.876,0.874
			c0,0.525,0.35,0.874,0.876,0.874h4.287c0.171,0,0.349,0.174,0.349,0.351v0.789c0,0.173-0.178,0.348-0.349,0.348h-0.617h-3.67
			c-0.438,0-0.876,0.351-0.876,0.872c0,0.438,0.35,0.874,0.876,0.874h3.67c0.179,0,0.35,0.177,0.35,0.35v0.787
			c0,0.177-0.171,0.353-0.35,0.353h-0.783h-2.887c-0.438,0-0.876,0.349-0.876,0.874c0,0.523,0.35,0.874,0.876,0.874h2.887
			c0.174,0,0.35,0.175,0.35,0.349v1.051c0,0.174-0.176,0.349-0.35,0.349h-5.246c-1.227,0-2.451-0.175-3.674-0.613l-3.322-1.048
			c-0.088,0-0.088,0-0.175-0.087v-8.569c0.263-0.175,0.524-0.35,0.787-0.611l0,0l4.111-6.734c0.086-0.174,0.26-0.174,0.26-0.174
			c0.088,0,0.176,0,0.351,0.089c0.526,0.524,0.614,1.399,0.349,2.098c0,0,0,0,0,0.086l-1.312,2.798
			c-0.086,0.263-0.086,0.612,0.088,0.788c0.175,0.261,0.438,0.349,0.7,0.349h8.833c0.173,0,0.35,0.175,0.35,0.35v0.786l0,0
			C45.952,21.699,45.779,21.874,45.601,21.874z"/>
	</g>
</g>
<g>
	<g>
		<path fill="#F75252" d="M56.968,24.235c-0.614-0.875-0.787-2.012-0.349-3.061c0.961-2.273,0-4.983-2.187-6.121
			c-0.961-0.523-1.577-1.485-1.66-2.622c-0.178-2.449-2.099-4.458-4.635-4.633c-1.05-0.089-2.011-0.7-2.621-1.663
			c-1.228-2.185-3.849-3.06-6.121-2.185c-0.874,0.524-2.011,0.436-2.975-0.175c-2.011-1.398-4.808-1.137-6.469,0.7
			c-0.7,0.786-1.836,1.225-2.885,1.048c-2.449-0.438-4.809,1.05-5.509,3.498c-0.263,1.049-1.136,1.835-2.186,2.185
			c-2.359,0.7-3.845,3.062-3.496,5.509c0.174,1.05-0.175,2.185-1.049,2.885c-1.836,1.663-2.186,4.46-0.7,6.47
			c0.612,0.875,0.787,2.01,0.35,3.061c-0.962,2.273,0,4.983,2.186,6.12c0.961,0.523,1.574,1.487,1.661,2.622
			c0.174,2.448,2.098,4.46,4.633,4.635c1.049,0.086,2.011,0.699,2.623,1.661c1.224,2.186,3.847,3.062,6.12,2.186
			c1.049-0.438,2.099-0.263,3.06,0.351c0.875,0.61,1.836,0.874,2.796,0.874c1.316,0,2.714-0.525,3.674-1.663
			c0.7-0.786,1.838-1.224,2.888-1.049c2.448,0.438,4.808-1.049,5.508-3.498c0.261-1.048,1.134-1.834,2.182-2.184
			c2.364-0.701,3.848-3.061,3.498-5.509c-0.173-1.05,0.178-2.185,1.049-2.885C58.102,29.043,58.37,26.246,56.968,24.235z
			 M55.044,29.394c-1.222,1.135-1.838,2.798-1.572,4.457c0.261,1.573-0.699,3.148-2.276,3.586c-1.658,0.437-2.882,1.749-3.318,3.321
			c-0.438,1.575-2.011,2.536-3.588,2.274c-1.658-0.264-3.318,0.262-4.457,1.574c-1.049,1.225-2.886,1.399-4.197,0.436
			c-0.875-0.611-1.836-0.873-2.798-0.873c-0.611,0-1.224,0.087-1.836,0.35c-1.486,0.611-3.147,0-3.934-1.399
			c-0.787-1.485-2.273-2.448-4.022-2.534c-1.574-0.09-2.885-1.399-2.973-2.973c-0.086-1.663-1.049-3.147-2.534-4.021
			c-1.399-0.788-2.011-2.449-1.399-3.937c0.612-1.574,0.437-3.323-0.524-4.72c-0.874-1.313-0.699-3.061,0.524-4.111
			c1.225-1.135,1.836-2.797,1.574-4.457c-0.262-1.574,0.7-3.148,2.274-3.586c1.66-0.436,2.884-1.748,3.32-3.323
			c0.438-1.573,2.012-2.534,3.585-2.271c1.662,0.262,3.322-0.263,4.459-1.575c1.049-1.225,2.885-1.399,4.197-0.436
			c1.399,0.96,3.147,1.136,4.723,0.525c1.484-0.614,3.148,0,3.934,1.398c0.787,1.485,2.274,2.448,4.022,2.535
			c1.572,0.088,2.882,1.398,2.97,2.972l0,0c0.09,1.663,1.051,3.148,2.537,4.022c1.399,0.788,2.01,2.448,1.399,3.935
			c-0.611,1.575-0.437,3.324,0.522,4.723C56.444,26.507,56.27,28.345,55.044,29.394z"/>
	</g>
</g>
</svg>
