<?xml version="1.0" encoding="utf-8"?>
<!-- Generator: Adobe Illustrator 16.0.0, SVG Export Plug-In . SVG Version: 6.00 Build 0)  -->
<!DOCTYPE svg PUBLIC "-//W3C//DTD SVG 1.1//EN" "http://www.w3.org/Graphics/SVG/1.1/DTD/svg11.dtd">
<svg version="1.1" id="search" xmlns="http://www.w3.org/2000/svg" xmlns:xlink="http://www.w3.org/1999/xlink" x="0px" y="0px"
	 width="32px" height="32px" viewBox="0 0 32 32" enable-background="new 0 0 32 32" xml:space="preserve">
<path fill="#FFFFFF" d="M12,0C5.373,0,0,5.373,0,12c0,6.627,5.373,12,12,12c2.289,0.049,4.545-0.559,6.5-1.75L28,32l4-4l-9.75-9.5
	c1.191-1.955,1.799-4.211,1.75-6.5C24,5.373,18.627,0,12,0 M12,4c4.418,0,8,3.582,8,8s-3.582,8-8,8s-8-3.582-8-8S7.582,4,12,4"/>
</svg>
