<?xml version="1.0" encoding="utf-8"?>
<!-- Generator: Adobe Illustrator 16.0.0, SVG Export Plug-In . SVG Version: 6.00 Build 0)  -->
<!DOCTYPE svg PUBLIC "-//W3C//DTD SVG 1.1//EN" "http://www.w3.org/Graphics/SVG/1.1/DTD/svg11.dtd">
<svg version="1.1" id="Layer_1" xmlns="http://www.w3.org/2000/svg" xmlns:xlink="http://www.w3.org/1999/xlink" x="0px" y="0px"
	 width="25.514px" height="25.585px" viewBox="0 0 25.514 25.585" enable-background="new 0 0 25.514 25.585" xml:space="preserve">
<path fill="#FFFFFF" d="M25.387,23.843c0,0.871-0.706,1.578-1.579,1.578H1.707c-0.872,0-1.58-0.707-1.58-1.578V1.741
	c0-0.872,0.708-1.579,1.58-1.579h22.101c0.873,0,1.579,0.707,1.579,1.579V23.843L25.387,23.843z"/>
<path d="M10.675,20.382c-0.793,0-1.609-0.063-2.43-0.194c-1.445-0.227-2.909-0.98-3.323-1.209l-1.086-0.594L5.012,18
	c1.285-0.423,2.067-0.686,3.035-1.096C7.078,16.435,6.331,15.59,5.971,14.5l-0.273-0.831l0.224,0.034
	c-0.212-0.213-0.38-0.43-0.511-0.629c-0.463-0.705-0.708-1.563-0.656-2.3l0.052-0.724l0.434,0.168
	C5.058,9.872,4.926,9.503,4.848,9.116C4.658,8.172,4.817,7.17,5.294,6.294L5.672,5.6l0.506,0.607
	c1.599,1.92,3.624,3.059,6.026,3.393c-0.098-0.677-0.024-1.33,0.218-1.915c0.284-0.682,0.789-1.26,1.458-1.671
	c0.745-0.458,1.647-0.679,2.541-0.624c0.948,0.058,1.812,0.414,2.495,1.029c0.334-0.087,0.581-0.18,0.913-0.306
	c0.2-0.075,0.428-0.16,0.712-0.258l1.047-0.361l-0.683,1.95c0.045-0.004,0.092-0.007,0.141-0.009l1.117-0.05l-0.661,0.903
	c-0.039,0.052-0.047,0.066-0.061,0.086c-0.053,0.081-0.12,0.18-1.026,1.392c-0.229,0.304-0.341,0.698-0.319,1.112
	c0.08,1.574-0.112,2.998-0.575,4.232c-0.437,1.169-1.112,2.171-2.009,2.979c-1.112,1.002-2.528,1.685-4.21,2.035
	C12.477,20.295,11.592,20.382,10.675,20.382z"/>
</svg>
