<?xml version="1.0" encoding="UTF-8"?>
<svg width="18px" height="12px" viewBox="0 0 18 12" version="1.1" xmlns="http://www.w3.org/2000/svg" xmlns:xlink="http://www.w3.org/1999/xlink">
    <!-- Generator: Sketch 51.1 (57501) - http://www.bohemiancoding.com/sketch -->
    <title>eye-open</title>
    <desc>Created with Sketch.</desc>
    <defs/>
    <g id="Page-1" stroke="none" stroke-width="1" fill="none" fill-rule="evenodd" opacity="0.5">
        <g id="UI---Start-Free-Trial" transform="translate(-493.000000, -593.000000)" fill="#000000" fill-rule="nonzero">
            <g id="eye-open" transform="translate(493.000000, 593.000000)">
                <path d="M17.7861797,5.27698182 C16.8492305,3.692 15.5894414,2.41847273 14.0069883,1.45643636 C12.4244297,0.494363636 10.7533125,0.0132727273 8.99342578,0.0132727273 C7.23353906,0.0132727273 5.56235156,0.494181818 3.97979297,1.45643636 C2.39719922,2.41847273 1.13748047,3.692 0.200671875,5.27698182 C0.0669023438,5.5192 0,5.758 0,5.99338182 C0,6.22876364 0.0669023438,6.46756364 0.200671875,6.70970909 C1.13748047,8.29476364 2.39719922,9.5684 3.97979297,10.5302182 C5.56235156,11.4924 7.23353906,11.9731273 8.99342578,11.9731273 C10.7533477,11.9731273 12.4244648,11.494 14.0069883,10.5354545 C15.5894414,9.57687273 16.8494414,8.30156364 17.7861797,6.70970909 C17.9199844,6.46756364 17.9868516,6.22887273 17.9868516,5.99338182 C17.9868516,5.758 17.9199844,5.5192 17.7861797,5.27698182 Z M6.84028125,2.43745455 C7.43913281,1.81803636 8.15677734,1.50821818 8.99332031,1.50821818 C9.12708984,1.50821818 9.24092578,1.5568 9.33465234,1.65363636 C9.42823828,1.75050909 9.47527734,1.86821818 9.47527734,2.00661818 C9.47527734,2.14512727 9.42823828,2.26276364 9.33486328,2.35949091 C9.24127734,2.45647273 9.12737109,2.50490909 8.99356641,2.50490909 C8.41812891,2.50490909 7.92615234,2.71610909 7.51802344,3.13821818 C7.10975391,3.56058182 6.90574219,4.06923636 6.90574219,4.66443636 C6.90574219,4.80301818 6.85877344,4.92058182 6.76515234,5.01752727 C6.67139063,5.11454545 6.55769531,5.16294545 6.42389063,5.16294545 C6.28998047,5.16294545 6.17625,5.11443636 6.08252344,5.01752727 C5.98876172,4.92058182 5.94193359,4.80287273 5.94193359,4.66443636 C5.94193359,3.79934545 6.24146484,3.05690909 6.84028125,2.43745455 Z M13.3546992,9.38327273 C12.0129961,10.224 10.5592852,10.6446182 8.99342578,10.6446182 C7.42760156,10.6446182 5.97389063,10.2242545 4.63225781,9.38327273 C3.290625,8.54229091 2.17480078,7.41236364 1.28485547,5.99338182 C2.30196094,4.35989091 3.57669141,3.13818182 5.10904687,2.32854545 C4.70088281,3.04825455 4.49673047,3.82698182 4.49673047,4.6644 C4.49673047,5.94498182 4.93678125,7.04 5.81663672,7.95029091 C6.69649219,8.86058182 7.75553906,9.31552727 8.99342578,9.31552727 C10.231418,9.31552727 11.2901484,8.86032727 12.1702148,7.95029091 C13.0502812,7.04025455 13.4901562,5.94498182 13.4901562,4.6644 C13.4901562,3.82698182 13.2859687,3.04814545 12.8777695,2.32854545 C14.4100547,3.13818182 15.6848555,4.36 16.7019258,5.99338182 C15.8121211,7.41236364 14.6964023,8.54229091 13.3546992,9.38327273 Z" id="Shape"/>
            </g>
        </g>
    </g>
</svg>