<?xml version="1.0" encoding="utf-8"?>
<!-- Generator: Adobe Illustrator 16.0.0, SVG Export Plug-In . SVG Version: 6.00 Build 0)  -->
<!DOCTYPE svg PUBLIC "-//W3C//DTD SVG 1.1//EN" "http://www.w3.org/Graphics/SVG/1.1/DTD/svg11.dtd">
<svg version="1.1" id="Layer_1" xmlns="http://www.w3.org/2000/svg" xmlns:xlink="http://www.w3.org/1999/xlink" x="0px" y="0px"
	 width="60.773px" height="62.07px" viewBox="0 0 60.773 62.07" enable-background="new 0 0 60.773 62.07" xml:space="preserve">
<path fill="#FFFFFF" d="M30.387,5.638c-9.544,0-17.311,7.767-17.311,17.309c0,2.49,0.511,4.868,1.516,7.066
	c4.326,9.469,12.625,19.467,15.065,22.307c0.18,0.211,0.45,0.333,0.73,0.333s0.546-0.122,0.729-0.333
	c2.439-2.84,10.736-12.836,15.064-22.307c1.004-2.198,1.516-4.576,1.516-7.066C47.697,13.405,39.927,5.638,30.387,5.638
	 M30.387,31.938c-4.957,0-8.994-4.034-8.994-8.991c0-4.955,4.036-8.993,8.994-8.993c4.957,0,8.991,4.037,8.991,8.993
	C39.379,27.903,35.344,31.938,30.387,31.938"/>
</svg>
