<?xml version="1.0" encoding="utf-8"?>
<!-- Generator: Adobe Illustrator 16.0.0, SVG Export Plug-In . SVG Version: 6.00 Build 0)  -->
<!DOCTYPE svg PUBLIC "-//W3C//DTD SVG 1.1//EN" "http://www.w3.org/Graphics/SVG/1.1/DTD/svg11.dtd">
<svg version="1.1" id="Capa_1" xmlns="http://www.w3.org/2000/svg" xmlns:xlink="http://www.w3.org/1999/xlink" x="0px" y="0px"
	 width="49.652px" height="49.652px" viewBox="0 0 49.652 49.652" enable-background="new 0 0 49.652 49.652" xml:space="preserve">
<g>
	<g>
		<polygon points="13.324,26.671 15.254,26.671 15.254,37.113 17.079,37.113 17.079,26.671 19.044,26.671 19.044,24.961 
			13.324,24.961 		"/>
		<path d="M28.758,27.947c-0.604,0-1.166,0.329-1.695,0.982V24.96h-1.642v12.153h1.642v-0.878c0.55,0.678,1.111,1.003,1.695,1.003
			c0.652,0,1.092-0.345,1.311-1.019c0.109-0.384,0.166-0.987,0.166-1.824v-3.606c0-0.856-0.057-1.455-0.166-1.819
			C29.849,28.291,29.41,27.947,28.758,27.947z M28.594,34.523c0,0.819-0.241,1.222-0.715,1.222c-0.269,0-0.543-0.129-0.816-0.402
			v-5.52c0.273-0.271,0.548-0.4,0.816-0.4c0.474,0,0.715,0.42,0.715,1.236V34.523z"/>
		<path d="M22.36,34.977c-0.364,0.515-0.708,0.768-1.038,0.768c-0.219,0-0.344-0.129-0.384-0.384
			c-0.015-0.053-0.015-0.253-0.015-0.637v-6.667h-1.641v7.158c0,0.64,0.056,1.073,0.145,1.347c0.165,0.46,0.529,0.676,1.057,0.676
			c0.604,0,1.224-0.364,1.876-1.112v0.987h1.642v-9.056H22.36V34.977z"/>
		<path d="M23.768,19.693c0.535,0,0.791-0.424,0.791-1.27v-3.849c0-0.847-0.256-1.269-0.791-1.269c-0.534,0-0.792,0.422-0.792,1.269
			v3.849C22.977,19.269,23.234,19.693,23.768,19.693z"/>
		<path d="M24.875,0.541c-13.439,0-24.333,10.895-24.333,24.333c0,13.439,10.895,24.333,24.333,24.333
			c13.439,0,24.334-10.894,24.334-24.333C49.209,11.436,38.314,0.541,24.875,0.541z M27.581,11.923h1.654v6.737
			c0,0.389,0,0.59,0.019,0.644c0.037,0.258,0.168,0.389,0.39,0.389c0.332,0,0.68-0.257,1.048-0.776v-6.994h1.657v9.151h-1.657
			v-0.998c-0.66,0.756-1.29,1.124-1.896,1.124c-0.533,0-0.901-0.217-1.067-0.68c-0.092-0.277-0.147-0.714-0.147-1.36V11.923
			L27.581,11.923z M21.319,14.906c0-0.978,0.167-1.693,0.519-2.156c0.458-0.626,1.104-0.939,1.931-0.939
			c0.83,0,1.475,0.313,1.934,0.939c0.349,0.462,0.515,1.178,0.515,2.156v3.205c0,0.973-0.166,1.694-0.515,2.151
			c-0.458,0.625-1.104,0.937-1.934,0.937c-0.826,0-1.472-0.313-1.931-0.937c-0.353-0.458-0.519-1.179-0.519-2.151V14.906z
			 M16.885,8.794l1.305,4.822l1.254-4.822h1.859L19.092,16.1v4.974h-1.838V16.1c-0.167-0.881-0.535-2.171-1.125-3.884
			c-0.387-1.14-0.791-2.283-1.179-3.421H16.885z M37.975,37.912c-0.334,1.443-1.515,2.509-2.937,2.668
			c-3.366,0.375-6.772,0.378-10.166,0.375c-3.392,0.003-6.8,0-10.167-0.375c-1.421-0.159-2.602-1.224-2.933-2.668
			c-0.474-2.057-0.474-4.3-0.474-6.418c0-2.116,0.006-4.36,0.479-6.417c0.332-1.444,1.512-2.509,2.934-2.667
			c3.367-0.376,6.774-0.378,10.167-0.376c3.392-0.002,6.799,0,10.166,0.376c1.421,0.159,2.602,1.224,2.936,2.667
			c0.472,2.057,0.468,4.301,0.468,6.417C38.449,33.612,38.448,35.855,37.975,37.912z"/>
		<path d="M33.983,27.947c-0.838,0-1.491,0.31-1.965,0.929c-0.349,0.458-0.507,1.166-0.507,2.133v3.172
			c0,0.962,0.178,1.675,0.527,2.128c0.474,0.619,1.127,0.929,1.985,0.929c0.856,0,1.53-0.324,1.984-0.982
			c0.199-0.291,0.328-0.619,0.383-0.982c0.015-0.164,0.034-0.528,0.034-1.058v-0.238h-1.673c0,0.657-0.022,1.021-0.036,1.111
			c-0.094,0.438-0.328,0.656-0.733,0.656c-0.563,0-0.838-0.418-0.838-1.256v-1.605h3.28v-1.874c0-0.968-0.164-1.676-0.507-2.134
			C35.459,28.257,34.807,27.947,33.983,27.947z M34.786,31.517h-1.641V30.68c0-0.838,0.274-1.257,0.823-1.257
			c0.542,0,0.817,0.419,0.817,1.257V31.517z"/>
	</g>
</g>
</svg>
