<?xml version="1.0" encoding="utf-8"?>
<!-- Generator: Adobe Illustrator 16.0.0, SVG Export Plug-In . SVG Version: 6.00 Build 0)  -->
<!DOCTYPE svg PUBLIC "-//W3C//DTD SVG 1.1//EN" "http://www.w3.org/Graphics/SVG/1.1/DTD/svg11.dtd">
<svg version="1.1" id="Layer_1" xmlns="http://www.w3.org/2000/svg" xmlns:xlink="http://www.w3.org/1999/xlink" x="0px" y="0px"
	 width="26.453px" height="31.351px" viewBox="496.948 470.855 26.453 31.351"
	 enable-background="new 496.948 470.855 26.453 31.351" xml:space="preserve">
<path fill="#E2E2E4" d="M512.896,491.168c-0.266,0-0.532,0.127-0.802,0.388v5.389c0.27,0.266,0.536,0.395,0.802,0.395
	c0.462,0,0.699-0.395,0.699-1.193v-3.771C513.595,491.574,513.358,491.168,512.896,491.168"/>
<path fill="#E2E2E4" d="M518.759,491.168c-0.536,0-0.804,0.406-0.804,1.227v0.818h1.603v-0.818
	C519.558,491.574,519.289,491.168,518.759,491.168"/>
<path fill="#E2E2E4" d="M522.089,485.1c-1.008-1.051-2.138-1.053-2.653-1.115c-3.703-0.263-9.255-0.263-9.255-0.263h-0.011
	c0,0-5.553,0-9.258,0.263c-0.517,0.063-1.641,0.067-2.649,1.115c-0.792,0.798-1.05,2.609-1.05,2.609s-0.265,2.127-0.265,4.253v1.994
	c0,2.128,0.265,4.256,0.265,4.256s0.258,1.811,1.05,2.606c1.009,1.048,2.329,1.014,2.915,1.125c2.12,0.203,8.999,0.263,8.999,0.263
	s5.556-0.008,9.259-0.275c0.516-0.06,1.646-0.064,2.653-1.112c0.792-0.796,1.05-2.606,1.05-2.606s0.263-2.128,0.263-4.256v-1.994
	c0-2.126-0.263-4.253-0.263-4.253S522.881,485.897,522.089,485.1 M502.779,498.671h-1.785v-10.191h-1.887v-1.668h5.592v1.668h-1.92
	V498.671z M509.103,498.671h-1.605v-0.967c-0.636,0.729-1.243,1.089-1.833,1.089c-0.516,0-0.872-0.211-1.034-0.657
	c-0.087-0.269-0.142-0.692-0.142-1.316v-6.983h1.605v6.504c0,0.375,0,0.57,0.012,0.621c0.041,0.249,0.165,0.378,0.377,0.378
	c0.324,0,0.659-0.249,1.015-0.751v-6.752h1.605V498.671z M515.198,496.021c0,0.816-0.056,1.404-0.163,1.78
	c-0.213,0.658-0.644,0.992-1.279,0.992c-0.571,0-1.124-0.315-1.66-0.979v0.856h-1.605v-11.859h1.605v3.873
	c0.519-0.637,1.068-0.959,1.66-0.959c0.636,0,1.064,0.337,1.279,0.997c0.107,0.358,0.163,0.939,0.163,1.777V496.021z
	 M521.162,494.543h-3.207v1.566c0,0.82,0.268,1.229,0.818,1.229c0.396,0,0.626-0.216,0.717-0.644
	c0.015-0.086,0.036-0.445,0.036-1.086h1.636v0.234c0,0.515-0.021,0.871-0.033,1.031c-0.053,0.354-0.183,0.675-0.375,0.959
	c-0.445,0.641-1.104,0.959-1.942,0.959c-0.837,0-1.476-0.304-1.94-0.908c-0.339-0.441-0.515-1.14-0.515-2.077v-3.095
	c0-0.944,0.156-1.634,0.496-2.081c0.464-0.605,1.103-0.906,1.921-0.906c0.805,0,1.444,0.301,1.894,0.906
	c0.335,0.447,0.495,1.137,0.495,2.081V494.543z"/>
<path fill="#E2E2E4" d="M504.144,477.983v4.853h1.797v-4.853l2.162-7.128h-1.818l-1.227,4.705l-1.275-4.705h-1.892
	c0.38,1.109,0.775,2.227,1.153,3.339C503.621,475.864,503.979,477.124,504.144,477.983"/>
<path fill="#E2E2E4" d="M510.16,482.961c0.81,0,1.439-0.307,1.889-0.914c0.34-0.444,0.505-1.148,0.505-2.1v-3.129
	c0-0.952-0.165-1.65-0.505-2.1c-0.449-0.612-1.079-0.917-1.889-0.917c-0.812,0-1.442,0.305-1.889,0.917
	c-0.346,0.449-0.507,1.147-0.507,2.1v3.129c0,0.951,0.161,1.655,0.507,2.1C508.718,482.654,509.349,482.961,510.16,482.961
	 M509.385,476.495c0-0.827,0.251-1.238,0.775-1.238c0.519,0,0.77,0.414,0.77,1.238v3.755c0,0.828-0.251,1.239-0.77,1.239
	c-0.524,0-0.775-0.411-0.775-1.239V476.495z"/>
<path fill="#E2E2E4" d="M518.457,482.836v-8.929h-1.62v6.827c-0.357,0.504-0.698,0.758-1.022,0.758c-0.219,0-0.348-0.132-0.38-0.38
	c-0.021-0.053-0.021-0.249-0.021-0.629v-6.576h-1.616v7.063c0,0.63,0.053,1.058,0.144,1.327c0.163,0.45,0.523,0.663,1.045,0.663
	c0.589,0,1.206-0.358,1.851-1.098v0.973H518.457z"/>
<rect x="496.949" y="470.855" fill="none" width="26.451" height="31.351"/>
</svg>
